<?xml version="1.0" standalone="no"?>
<!DOCTYPE svg PUBLIC "-//W3C//DTD SVG 1.1//EN" "http://www.w3.org/Graphics/SVG/1.1/DTD/svg11.dtd" >
<!--
2013-9-30: Created.
-->
<svg>
<metadata>
Created by iconfont
</metadata>
<defs>

<font id="iconfont" horiz-adv-x="1024" >
  <font-face
    font-family="iconfont"
    font-weight="500"
    font-stretch="normal"
    units-per-em="1024"
    ascent="896"
    descent="-128"
  />
    <missing-glyph />
    
    <glyph glyph-name="back" unicode="&#59031;" d="M320.20239936 434.51451836C285.3764654 402.95351477 285.84650319 351.00721897000005 321.35383938 319.93830044000003L721.65293531-30.323407679999946C733.13149482-40.36714629000005 750.57876643-39.20399458999998 760.62250892-27.725435070000003 770.66624753-16.24687554000002 769.50309583 1.2003960499999948 758.0245363 11.244138550000002L357.72544297 361.50584667C347.07036125 370.82904011000005 346.94925331 384.21322729 357.29285617 393.58711742L758.38396355 757.07593216C769.68575389 767.31818174 770.5446839 784.7830733 760.30243821 796.08486363 750.06018863 807.38665265 732.59529836 808.24558268 721.29350804 798.00333568L320.20239936 434.51451836Z"  horiz-adv-x="1024" />

    
    <glyph glyph-name="less" unicode="&#59045;" d="M509.31708756 545.6113475C518.69097769 555.95495038 532.07516358 555.83384244 541.3983583 545.17876071L891.66006643 144.87966737C901.70380764 133.40110785000002 919.15107923 132.23795614999995 930.62963876 142.28169605999994 942.10819957 152.32543726999995 943.27134997 169.77270885999997 933.22761136 181.25126838999995L582.96590323 581.5503656000001C551.89698473 617.0577005 499.95068891 617.52773958 468.38968532 582.70180433L104.90086929 181.61069694000003C94.65862229 170.30890661 95.51755104 152.84401505999995 106.81934135 142.60176676000003 118.12113038 132.35951977000002 135.58602323 133.21844979000002 145.82827152 144.52024012000004L509.31708756 545.6113475Z"  horiz-adv-x="1024" />

    
    <glyph glyph-name="moreunfold" unicode="&#59046;" d="M468.38968532 212.91501171000004C499.95068891 178.08907775 551.89698473 178.55911552999999 582.96590323 214.06645172000003L933.22761136 614.36554765C943.27134997 625.84410716 942.10819957 643.29137876 930.62963876 653.33512126 919.15107923 663.37885987 901.70380764 662.21570818 891.66006643 650.73714865L541.3983583 250.43805530999998C532.07516358 239.78297358999998 518.69097769 239.66186564999998 509.31708756 250.00546852000002L145.82827152 651.0965759000001C135.58602323 662.39836623 118.12113038 663.25729626 106.81934135 653.01505056 95.51755104 642.77280098 94.65862229 625.30791071 104.90086929 614.00612039L468.38968532 212.91501171000004Z"  horiz-adv-x="1024" />

    
    <glyph glyph-name="more1" unicode="&#59047;" d="M680.51555248 393.58711742C690.85915406 384.21322729 690.73804612 370.82904011000005 680.0829657 361.50584667L279.78387235 11.244138550000002C268.30531154 1.2003960499999948 267.14216113-16.24687554000002 277.18589974-27.725435070000003 287.22964224-39.20399458999998 304.67691385-40.36714629000005 316.15547337-30.323407679999946L716.45456929 319.93830044000003C751.96190548 351.00721897000005 752.43194326 402.95351477 717.606008 434.51451836L316.51490062 798.00333568C305.21311029 808.24558268 287.74821873 807.38665265 277.50597045 796.08486363 267.26372475 784.7830733 268.12265477 767.31818174 279.4244438 757.07593216L680.51555248 393.58711742Z"  horiz-adv-x="1024" />

    
    <glyph glyph-name="notice" unicode="&#58924;" d="M510.47-16.409999999999968c-20.37 0-40.98000001 14.16-67.05000001 36.3l-177.62999999 147.63L185.33 167.51999999999998C133.88 167.54999999999995 92 209.39999999999998 92 260.88l0 246.66000001c0 51.45 41.88 93.33 93.33 93.32999999l80.46 0 177.54 147.54c26.16 22.47 46.41 36 66.96 36 22.32 0 48.39-15.21 48.39-57.98999999l0-684.45000001C558.68-1.1400000099999943 532.70000001-16.409999999999968 510.47-16.409999999999968L510.47-16.409999999999968zM185.33 538.65c-17.13 0-31.11-13.98000001-31.11000001-31.10999999l0-246.66000001c0-17.16 13.98000001-31.11 31.11000001-31.11l93.32999999 0c8.25 0 16.17-3.27 21.99000001-9.12l186.72-156.74999999c3.30000001-3.27 6.30000001-6.03 9.06-8.34000001L496.43 712.8c-2.70000001-2.28-5.79-5.04-9.12-8.37l-186.66-156.66c-5.82000001-5.85-13.74000001-9.12-21.98999999-9.12L185.33 538.65 185.33 538.65zM667.16 171.89999998999997c-6.27 0-12.63 1.89-18.12 5.85000001-13.95 10.02000001-17.13 29.46000001-7.14000001 43.44l12.33000001 16.86c32.19 43.65 60 81.39 60 146.16 0 67.11-24.63 99.69-55.86 140.91-5.52 7.26000001-11.01 14.58000001-16.47000001 22.14000001-10.02000001 13.95-6.84 33.39 7.14000001 43.43999998 13.98000001 10.08 33.39 6.84 43.44-7.13999999 5.10000001-7.14000001 10.35-14.07 15.51-20.91 33.66000001-44.49 68.43-90.48 68.42999999-178.46999999 0-85.2-38.28-137.19-72.08999999-183.09000001l-11.88-16.26C686.39 176.37 676.85 171.89999998999997 667.16 171.89999998999997L667.16 171.89999998999997zM773 66.26999999999998c-7.29 0-14.61 2.55-20.49 7.71000001-12.90000001 11.31-14.22000001 30.99-2.91 43.88999999 62.43 71.22000001 120.18000001 152.70000001 120.18000001 266.31000001 0 113.61-57.75 195.12-120.18000001 266.28-11.31 12.93-10.02000001 32.58000001 2.91 43.92 12.84 11.34000001 32.52 10.05 43.89-2.85000001 67.05-76.50000001 135.6-172.8 135.6-307.34999999 0-134.55-68.58000001-230.88-135.6-307.32C790.19 69.84000000000003 781.61 66.26999999999998 773 66.26999999999998L773 66.26999999999998zM773 66.26999999999998"  horiz-adv-x="1024" />

    
    <glyph glyph-name="success" unicode="&#59051;" d="M901.43144277 599.0837500800001L409.69201255 111.07902076000005c-15.97416757-15.85519836-41.78106636-15.75873502-57.63787351 0.21382536L122.35473188 342.64818998c-15.85841281 15.97256036-15.76355824 41.77302867 0.21382535 57.62822704 15.97416757 15.85198236 41.77945917 15.75712779 57.63626472-0.21382535l200.9873823-202.43914172 462.81358154 459.2975277c15.97416757 15.85519836 41.77945917 15.75873502 57.63787353-0.21382534C917.50207372 640.73780797 917.40721915 614.93573244 901.43144277 599.0837500800001z"  horiz-adv-x="1024" />

    
    <glyph glyph-name="return" unicode="&#59084;" d="M195.76922 753.944634c-14.012132 0-25.412786 11.400654-25.412786 25.416879s11.385305 25.416879 25.38311 25.416879l632.422673 0c14.033621 0 25.465998-11.412934 25.483394-25.434276 0-13.997805-11.389398-25.39846-25.38618-25.39846L195.76922 753.945657zM511.353782-36.78248499999995c-14.009062 0-25.41074 11.401678-25.41074 25.423019L485.943043 580.766432 222.263641 317.090101c-4.812609-5.057179-11.351536-7.849782-18.411325-7.849782-14.144138 0-25.647123 11.491729-25.647123 25.611308 0 6.828522 2.629897 13.233396 7.408737 18.033725l307.872926 307.922045c4.838192 5.130857 11.395538 7.953136 18.461467 7.953136 6.912433 0 13.390985-2.75474 18.23941-7.776104l308.08782-308.123636c4.77577-4.800329 7.456832-11.254322 7.519254-18.154475 0-13.960966-11.474332-25.435299-25.582655-25.435299-6.808056 0-13.220093 2.65241-18.057261 7.470135l-265.415952 265.312598 0-593.412195C536.739962-25.381831000000034 525.351588-36.78248499999995 511.353782-36.78248499999995z"  horiz-adv-x="1024" />

    
    <glyph glyph-name="complain" unicode="&#58944;" d="M256.13527866-37.875c-7.18228592 0-14.22969296 1.32349603-20.95676423 3.93676941-22.17910171 8.76710962-36.37507517 29.64800391-36.3160654 53.24333093l0.35405613 135.78903974c-55.07262214 11.55741065-96.30332693 60.01255096-96.30332694 117.85018468L102.91317822 685.4031118400001c0 66.42771488 54.38979932 120.47188816 121.23901016 120.47188816l575.68719397 0c66.84921084 0 121.23901016-54.04417246 121.23901017-120.47188816l0-412.45035698c0-66.42771488-54.38979932-120.47188816-121.23901017-120.47188816L460.51009116 152.48086751999995 297.88020789-19.91085552000004C287.09834934-31.333387300000027 271.88235547-37.875 256.13527866-37.875zM224.15218838 755.2955213c-38.96305828 0-70.65953147-31.35084714-70.65953146-69.89240946l0-412.45035698c0-38.53313305 31.69647317-69.89240946 70.65953146-69.89240946l25.35717838 0 0.35405612-25.35717838-0.41306589-158.53294555c-0.00843008-2.61327338 1.67755298-5.02422803 4.18966699-6.0189582 2.26764652-0.87671063 5.61432239-0.31190652 7.46047294 1.64383265l177.59297872 188.25681857 361.14590589-1e-8c38.96305828 0 70.65953147 31.35927639 70.65953147 69.89240947L870.49891382 685.4031118400001c0 38.54156232-31.69647317 69.89240946-70.65953147 69.89240946L224.15218838 755.2955213zM731.60766571 389.95994842c8.92727793-15.10640442 3.83561004-34.54578397-11.38881225-43.43091229-15.16541336-8.85983889-34.79868155-3.81032062-43.7512489 11.2960838-25.74495484 43.46463181-99.39710523 78.8112573-164.25685657 78.8112573-65.08735868 0-138.90810745-35.63324258-164.56033301-79.418211-8.89355841-15.1569841-28.45938675-20.29923083-43.71752939-11.47311145-15.28343206 8.78396979-20.46782922 28.24020867-11.5827009 43.37190252 42.21700488 72.08418686 144.7837575 111.01352563 219.88585273 111.01352563C586.98407651 500.07990325 689.25578195 461.47090109 731.60766571 389.95994842L731.60766571 389.95994842z"  horiz-adv-x="1024" />

    
    <glyph glyph-name="i-order" unicode="&#58882;" d="M124.21916445 352.47559111c0 109.14247111-0.01706667 218.29063111 0.00796444 327.43310222 0.01251555 47.19160889 30.88725333 84.12956445 77.56117333 90.86520889 15.42257778 2.22435555 31.45841778 1.60654222 47.10058667 0.54272 14.86279111-1.01148445 25.67054222-15.48515555 24.96625778-30.63466667-0.72135111-15.51018667-12.87054222-27.99160889-28.21461334-28.50929777-9.92938667-0.33450667-19.88039111-0.02389333-29.82229333-0.10353778-19.22503111-0.14904889-31.75651555-12.75904-31.76106667-32.11719111-0.02048-218.29063111-0.02048-436.58012445 0-654.87075556 0-19.61984 12.61454222-32.30833778 32.25031112-32.31175111 198.19861333-0.03299555 396.40177778-0.03299555 594.6003911-0.00341333 20.23651555 0.00341333 32.52679111 12.60088889 32.54385778 33.32664889 0.05347555 60.05873778 0.02048 120.11633778 0.02048 180.17507555 0 156.98488889-0.00796445 313.97432889 0.02958222 470.95921778 0 8.25116445-1.00238222 16.13141333-6.23843555 22.88298667-5.95285333 7.67658667-13.86040889 11.70318222-23.53834667 11.88864-9.93848889 0.19456-19.88039111 0-29.82229333 0.08760889-16.98816 0.15246222-30.30357333 13.09013333-30.52999111 29.56174222-0.22300445 16.42496 12.96952889 30.26944 29.84732444 30.07032889 17.12014222-0.20252445 34.68060445 0.65080889 51.25575112-2.77959111 39.40807111-8.16014222 67.38716445-43.59281778 68.8071111-83.79050667 0.07850667-2.27441778 0.09102222-4.5568 0.09102223-6.83463111 0.00341333-217.25411555 0.04096-434.50936889-0.03299556-651.76348444-0.01251555-39.32046222-17.57184-68.14947555-53.01134222-85.57226667-11.66904889-5.73667555-24.28359111-8.06912-37.29976889-8.06912-199.44561778 0-398.88782222-0.03754667-598.32888889 0.02958222-50.78357333 0.01706667-90.42716445 39.86432-90.46016 90.84472889-0.07395555 109.57368889-0.01706667 219.13486222-0.02048 328.69262222zM513.91715555 652.2072177800001c-38.93589333 0-77.87178667-0.02389333-116.80654222 0.00796444-37.90734222 0.03299555-63.01696 25.14488889-63.0784 63.05792-0.02958222 18.2272-0.06712889 36.44984889 0.00796445 54.67818667 0.14904889 36.28828445 25.6 61.81888 61.76540444 61.83936 78.70008889 0.05006222 157.39904 0.05347555 236.09912889-0.00341334 35.74101333-0.02958222 61.49575111-25.81162667 61.56970667-61.46616888 0.04096-19.25916445 0.08305778-38.52174222-0.01251556-57.77976889-0.16611555-33.60426667-25.45208889-59.79363555-59.01425777-60.17024-40.17493333-0.45169778-80.35214222-0.10808889-120.5304889-0.10808889 0-0.01706667 0-0.03299555 0-0.05347556zM633.33489778 771.43836445c-79.98805333 0-159.52440889 0-238.97315556 0 0-19.99189333 0-39.52412445 0-59.02222223 79.85948445 0 159.25475555 0 238.97315556 0 0 19.69720889 0 39.06787555 0 59.02222223zM513.20490667 292.44984889c-58.58759111 0-117.17632 0.02389333-175.76277334-0.02389334-8.54129778-0.00796445-16.49095111 1.55306667-23.03658666 7.44448-9.35822222 8.42638222-12.50190222 18.97244445-9.08060445 30.93617778 3.43495111 12.00924445 11.79420445 19.13059555 24.21646223 21.17632 2.23345778 0.36864 4.52835555 0.50972445 6.7936711 0.50972445 118.21169778 0.02389333 236.42225778 0.04096 354.63395556 0 20.16597333-0.00796445 33.53713778-13.59985778 32.33223111-32.55182223-0.82033778-12.93767111-11.01141333-24.47815111-23.83189333-26.67747555-3.64544-0.62464-7.41034667-0.78279111-11.12291556-0.78734222-58.38051555-0.03754667-116.76103111-0.02389333-175.14154666-0.02389333zM513.30958222 142.80931554999995c-59.62296889 0-119.24593778-0.01251555-178.87459555 0.01251556-12.58040889 0.00341333-22.00120889 5.65475555-27.38176 16.94378667-5.24856889 11.00686222-4.01521778 21.83054222 3.52597333 31.51644444 6.11100445 7.85408 14.45774222 11.35160889 24.39964445 11.33454223 27.74243555-0.05006222 55.48487111-0.01251555 83.22730666-0.01251556 91.09390222 0 182.18439111 0.01706667 273.27829334-0.01706667 18.688-0.00796445 31.84753778-12.42794667 31.90101333-29.87918222 0.05006222-16.46705778-12.74993778-29.70282667-29.3376-29.83822222-22.56327111-0.19000889-45.13223111-0.05347555-67.69777778-0.05347556-37.68433778-0.00341333-75.36071111-0.00341333-113.04163555-0.00341333zM454.04501333 502.21169778c39.74712889 0 79.49880889 0.12856889 119.24593778-0.05347556 20.14549333-0.09557333 33.91146667-17.68448 29.41610667-36.98915555-3.12433778-13.40984889-14.97543111-22.69752889-29.58904889-22.76238222-26.49998222-0.12060445-52.99882667-0.04096-79.49880889-0.03754667-52.99882667 0-105.99879111-0.09102222-158.99875555 0.05347555-21.69856 0.05802667-36.10624 20.51413333-28.7698489 40.33080889 4.42823111 11.95918222 15.27694222 19.40366222 28.9439289 19.43210667 39.75168 0.07395555 79.50336 0.02389333 119.25162666 0.02389333z"  horiz-adv-x="1024" />

    
    <glyph glyph-name="school" unicode="&#59097;" d="M221.80869599 591.19565244l125.88260887 0 0-50.71304357-125.88260887 0 0 50.71304357ZM422.88043467 591.19565244l125.88260889 0-1e-8-50.71304357-125.88260888 0 0 50.71304357ZM687.77391289 468.79565244l50.71304355 0 0-83.99347822-50.71304355 0 0 83.99347822ZM780.43478222 468.79565244l50.71304356 0 0-83.99347822-50.71304355 0 0 83.99347822ZM780.43478222 349.17391289l50.71304356 0 0-85.83260888-50.71304355 0 0 85.83260888ZM687.77391289 349.17391289l50.71304355 0 0-85.83260888-50.71304355 0 0 85.83260888ZM422.88043467 468.79565244l125.88260889 0-1e-8-50.71304357-125.88260888 0 0 50.71304357ZM422.88043467 348.15652177000004l125.88260889 0-1e-8-50.71304355-125.88260888 0 0 50.71304355ZM221.80869599 348.15652177000004l125.88260887 0 0-50.71304355-125.88260887 0 0 50.71304355ZM221.80869599 229.25869598999998l125.88260887 0 0-50.71304355-125.88260887 0 0 50.71304355ZM422.88043467 229.25869598999998l125.88260889 0-1e-8-50.71304355-125.88260888 0 0 50.71304355ZM221.80869599 468.79565244l125.88260887 0 0-50.71304357-125.88260887 0 0 50.71304357ZM935.76304355 46.813043549999975l-22.32391288 1e-8L913.43913066 558.20869599c0 38.97391289-31.03043467 70.68913067-69.20217421 70.68913067l-171.45 0.01956534c-3.65869599 0-7.39565244-0.03913067-11.11304356-0.15652179L661.67391289 706.57173955c0 38.15217422-31.03043467 69.20217422-69.20217422 69.20217422L187.68695644 775.77391289c-38.15217422 0-69.18260887-31.05-69.18260889-69.20217422L118.50434755 46.69565245000001l-29.26956532-2e-8c-15.04565244 0-27.23478223-12.20869599-27.23478223-27.23478222 0-15.04565244 12.18913066-27.23478223 27.23478223-27.23478222l29.26956534 0 0 0 543.18913065 0L661.69347822-7.695652450000011l274.06956534 0.03913067c15.04565244 0 27.23478223 12.20869599 27.23478222 27.23478223C962.99782578 34.64347823000003 950.78913066 46.813043549999975 935.76304355 46.813043549999975zM661.77173955 574.3304346699999c3.48260887 0.09782578 7.68913066 0.11739113 10.858696 0.11739111l171.62608711-0.01956533c7.98260887 0 14.73260889-7.43478222 14.73260888-16.21956534l0-511.39565243L661.69347822 46.813043549999975 661.77173955 574.3304346699999zM172.95434756 706.57173955c0 7.98260887 6.75 14.73260889 14.71304355 14.73260889l404.80434756 0c7.98260887 0 14.73260889-6.75 14.73260889-14.73260889l0-127.38913066 0-532.42826045L172.95434756 46.69565245000001 172.95434756 706.57173955z"  horiz-adv-x="1026" />

    
    <glyph glyph-name="identityauthentication" unicode="&#58890;" d="M498.66188118 335.19158727c-17.4818907 15.90194176-32.94489259 29.57425891-58.78991417 36.18512555l-27.61009266-48.77814101c0-7.43285987-7.01254883-13.5174656-15.56196807-13.5174656-8.55873309 0-15.56778894 6.08460573-15.56778894 13.5174656l11.55679232 22.55239509c0 9.63337671-13.38939278 16.15342933-23.18460701 16.15342933-9.79754325 0-23.18693603-6.52005262-23.18693603-16.15342933l11.55912135-22.55239509c0-7.43285987-7.00323499-13.5174656-15.56196807-13.5174656-8.56222606 0-15.56778894 6.08460573-15.56778894 13.5174656l-27.61009266 48.77814101c-25.83919957-6.67024611-43.88228096-18.25148928-58.79690013-36.18512555-5.29521437-6.35821511-9.30038898-61.60983723-9.30038897-61.60983722 0-14.47218745 12.7117733-26.19663815 28.40414208-26.19663816L479.56161992 247.38511188999996c15.69003975 0 28.4006491 11.7244507 28.4006491 26.19663816C507.96227016 273.58175005 511.67753558 323.37049941 498.66188118 335.19158727zM311.87519033 462.1020763c0-31.80621255 19.97813874-78.54218013 57.62911232-78.54218012 36.99081785 0 57.62911232 46.73596757 57.62911232 78.54218012 0 31.80271957-25.79845006 57.62911232-57.62911232 57.62911232C337.66781838 519.73118862 311.87519033 493.90479587 311.87519033 462.1020763zM748.29023346 519.78940302l-83.15744597 0c-20.77568114 0-37.64165859-8.71707762-37.6416586-19.45537081 0-10.7441152 16.86597859-19.47749149 37.6416586-19.47749148l83.15744597 0c20.78150201 0 37.64748061 8.73337742 37.6474806 19.47749148C785.93771293 511.07116146 769.07173547 519.78940302 748.29023346 519.78940302zM748.29023346 325.26830023l-83.15744597 0c-20.77568114 0-37.64165859-8.71824157-37.6416586-19.46235562 0-10.73829319 16.86597859-19.46235563 37.6416586-19.46235563l83.15744597 0c20.78150201 0 37.64748061 8.72406243 37.6474806 19.46235563C785.93771293 316.55005867 769.07173547 325.26830023 748.29023346 325.26830023zM845.02685128 714.2592773700001L171.61722198 714.2592773700001c-54.71255325 0-99.03027997-43.97775303-99.03027997-98.28978802l0-425.90145877c0-54.30854315 44.31772672-98.29328099 99.03027997-98.293281l673.4096293 0c54.71604622 0 99.03726592 43.9835739 99.03726592 98.293281L944.0641172 615.96948935C944.0641172 670.28152434 899.7428975 714.2592773700001 845.02685128 714.2592773700001zM904.45363542 527.7904395400001l-0.00232904 0 0-328.5105061c0-37.98629035-26.56106269-68.51294208-59.63402808-68.51294208L171.83378091 130.76699022000003c-33.07180146 0-59.63635712 30.52548779-59.63635712 68.51294208L112.19742379 527.7904395400001l-0.00931385 0 0 54.3341568 0.01280683 0 0 41.778399c0 28.49495723 25.5376475 51.38616206 57.34036707 51.38616207l677.56849152 0c31.79573362 0 57.34269611-22.89236878 57.34269611-51.38616207l0-41.778399 0.00116395 0L904.45363542 527.7904395400001z"  horiz-adv-x="1024" />

    
    <glyph glyph-name="mailmessage" unicode="&#58891;" d="M851.62413867 67.74762880000003L172.37258667 67.74762880000003c-39.48706667 0-71.49826773 31.46980373-71.49826774 70.27466667L100.87431893 629.97552213c0 38.80377067 32.01120107 70.27794133 71.49826774 70.27794134l679.25155306 0c39.49034133 0 71.5015424-31.4730784 71.5015424-70.27794134l0-491.95431893C923.12458987 99.21743253 891.11448 67.74762880000003 851.62413867 67.74762880000003zM851.62413867 665.1117632L172.37258667 665.1117632c-3.9251296 0-7.5304416-1.0467744-11.06262187-2.19506027l5.5624192-5.46199893 0 0.0534848 319.85004267-316.0045952c13.95953387-13.7193984 36.596704-13.7193984 50.55623786 0l274.7055936 271.63840427c0.6319936 0.90487573 1.01839467 1.90689707 1.83376427 2.7069856l48.0479104 47.23253973C858.56188267 664.07044693 855.25783147 665.1117632 851.62413867 665.1117632zM887.37600213 629.97552213c0 1.93200213-0.8131872 3.59876373-1.11990613 5.44562667l-46.17266667-45.38240213c-0.9103328-0.90160107-2.05861867-1.35349333-3.09884373-2.01495787L562.55732907 316.66263146999995c-27.9223424-27.44752853-73.193408-27.44752853-101.1146592 0L186.38233067 588.6350431999999c-0.05021013 0.05021013-0.1167936 0.0633088-0.16809494 0.11024427l-48.3044192 47.4824992c-0.40168213-2.10337173-1.28690987-4.03537387-1.28690986-6.25226454l0-491.95431893c0-19.40516053 16.00505493-35.13842453 35.74858773-35.13842453l679.25155307 0c19.74680747 0 35.7518624 15.73326507 35.7518624 35.13842453L887.37490987 629.97552213zM766.41302293 196.3884064l-87.78166186 86.28626987c-7.2924896 7.165872-7.2924896 18.79499627 0 25.9674176 7.29576427 7.16259733 19.12354667 7.16259733 26.4160352 0l87.7783872-86.2829952c7.29576427-7.175696 7.29576427-18.80482027 0-25.97069227C785.53329387 189.21925972999998 773.70551147 189.21925972999998 766.41302293 196.3884064zM256.23021013 196.14826987000004c-6.982496-6.86242773-18.298352-6.86242773-25.280848 0-6.982496 6.8558784-6.982496 17.9883584 0 24.85078613l83.24091094 81.81428587c6.982496 6.86242773 18.30162667 6.86242773 25.280848 0 6.982496-6.8657024 6.982496-17.98508373 0-24.8442368L256.23021013 196.14826987000004z"  horiz-adv-x="1024" />

    
    <glyph glyph-name="security" unicode="&#58897;" d="M872.64039253 384l0.01047894 0.00465693c-10.89663773-218.90260537-270.09083733-417.97144462-361.49032733-417.97144463-112.85162667 0-323.47376526 196.94283662-356.11943481 379.97933341l-0.09197909-0.04540758-4.07503303 38.03402696 0.04890055 0.00349297c-0.10595101 2.88628736-0.63919787 5.81914624-0.63919787 8.68680591l-1.73363541 250.42822257c145.38319417 0 218.07362731 42.75291477 363.96911161 158.84943133 144.85693326-116.09651655 241.7775104-158.84943133 362.93056057-158.84943133l-1.57761991-221.11942315 0.00465692 0.00465693L872.64039253 384 872.64039253 384zM471.61642667 11.59557006L471.61642667 346.01370965 195.40954681 346.01370965C222.63542215 200.65496518999998 368.93142357 46.810837900000024 471.61642667 11.59557006zM512 384.00465693l0 37.99560419L512 763.60326599c-129.3590016-105.24761543-193.99833486-144.03959808-323.06393429-144.03959808l1.54152618-227.65461162c0-2.61267797 0.47619641-5.27774947 0.56701156-7.90556331l280.57182208 0 40.38357333 0 0-379.87803933c81.83480661 0.99896547 310.91684352 181.41579833 320.57700011 379.87803933L552.38240939 384.00349298 512 384.00465693 512 384.00465693zM552.38240939 732.57480306l0-310.57570475 281.30649202 0 1.37736078 197.56457074C738.95603427 619.56366791 659.78629917 650.87854706 552.38240939 732.57480306z"  horiz-adv-x="1024" />

    
    <glyph glyph-name="mywelfare" unicode="&#58898;" d="M860.27325099 600.26897067l-70.2046629 0c32.17995093 45.01746802 31.0098341 104.47452387-5.70504534 140.81450098l-5.68641649 5.62936604c-41.58396189 41.12173739-113.13687893 37.26093426-160.18371357-9.36675328l-109.08163868-124.30130404L399.6478555 738.07609742c-46.38435101 45.91863239-117.92213106 49.75731371-159.50609408 8.63557632l-5.67477361-5.62936604c-36.71953749-36.3399771-37.88848925-95.79703296-5.71319638-140.81450098l-65.02937145 0c-48.02717127 0-87.09742023-38.68021077-87.09742023-86.19974883l0-39.52083172c0-47.02820579 38.29366443-85.33700608 85.64321508-86.11359062l0-269.65189859c0-68.29289017 56.84786973-125.98254592 124.13015267-125.98254592l455.12759296 0c66.27516757 0 120.19367139 56.50789603 120.1936714 125.98254592L861.72163299 388.4347995c47.34955065 0.77658453 85.65136498 39.08538482 85.65136498 86.11359061l0 39.52083172C947.37416306 561.58875989 908.29692814 600.26897067 860.27325099 600.26897067zM639.36107179 718.10028658c35.25718243 34.86365127 88.69133995 38.77451776 119.12601258 8.63906929l5.68292466-5.6258742c30.43467264-30.11681963 26.52380615-83.01190827-8.72639146-117.89535232l-2.97943154-2.94915982L535.98098546 600.26897067 639.36107179 718.10028658zM263.37643406 603.21812935c-35.24670464 34.88344405-39.15757113 87.77853269-8.71474859 117.89535232l5.67128064 5.6258742c30.45330147 30.12031261 83.89793678 26.21759602 118.44839311-7.90090638l104.05770581-118.56947996L266.36285155 600.26897067 263.37643406 603.21812935zM741.53029063 21.063617420000014L286.40153373 21.063617420000014c-51.80996608 0-95.58163797 44.75666659-95.58163798 97.72044857L190.81989575 388.35562723l642.35438763 0L833.17428338 118.78406599000004C833.17428338 64.88419101 792.05953195 21.063617420000014 741.53029063 21.063617420000014zM918.82099143 474.54839011c0-31.94476317-26.25834667-57.92717141-58.54774044-57.92717141L163.72442112 416.6212187c-32.28590194 0-58.55239851 25.98240825-58.55239851 57.92717141l0 39.52083172c0 31.95291307 26.26649657 57.93532131 58.55239851 57.93532132l696.54882987 0c32.28939491 0 58.54774045-25.98240825 58.54774044-57.93532132L918.82099143 474.54839011z"  horiz-adv-x="1024" />

    
    <glyph glyph-name="rechargecash" unicode="&#58899;" d="M819.0618624 111.77384504999998c0-8.54709021-6.9438555-15.48046677-15.48395975-15.48046678L122.36400299 96.29337826999995c-8.53428224 0-15.48395975 6.93337657-15.48395976 15.48046678L106.88004323 344.0076288l514.87921494 0c-38.05614763 30.60233102-65.24825941 74.09690169-74.87581526 123.86352925L106.87887929 467.87115805l0 92.8851308c0 8.54359723 6.95084146 15.48046677 15.48395975 15.48046678l432.23405909 0c3.70362254 10.71035051 8.08137159 21.10983395 13.38822884 30.96209863l-445.62228793 0c-25.61099776 0-46.44605838-20.83505949-46.44605838-46.44256541l0-448.98360775c0-25.60750592 20.83505949-46.44955136 46.44605838-46.44955136L803.5767387 65.32312974000001c25.61449074 0 46.44955136 20.84088149 46.44955136 46.44955136L850.02629006 321.34113279999997c-9.89534322-5.15200569-20.23079139-9.54372665-30.96559161-13.09249763L819.0618624 111.77384504999998 819.0618624 111.77384504999998zM753.26405632 702.67803421c-107.42368256 0-194.82149091-87.40479431-194.82149091-194.82847688 0-107.41320477 87.39780835-194.81799794 194.82149091-194.81799794s194.81799794 87.40479431 194.81799794 194.81799794C948.08321934 615.27440498 860.68774002 702.67803421 753.26405632 702.67803421zM753.26405632 344.0076288c-90.35278905 0-163.85590045 73.49263246-163.85590045 163.84309248 0 90.35628203 73.50311139 163.86637824 163.85590045 163.86637824 90.34929607 0 163.85240747-73.51009621 163.85240747-163.86637824C917.11646379 417.50026126 843.61451634 344.0076288 753.26405632 344.0076288zM842.28605611 529.78836935l-69.66908701 0 0 57.09004345c0 11.22729757-9.10012985 20.32160541-20.3216054 20.32160541l-5.80284644 0c-11.22380459 0-20.32509838-9.09430898-20.32509838-20.32160541l0-57.09004345-69.66559403 0c-12.82703815 0-23.2265216-10.39599047-23.2265216-23.2265216 0-12.81423133 10.39948345-23.21604381 23.2265216-23.2160438l69.66559403 0 0-57.09702941c0-11.22380459 9.10012985-20.32160541 20.32509838-20.3216054l5.80284644 0c11.22031161 0 20.32160541 9.09780195 20.3216054 20.3216054l0 57.09702941 69.66908701 0c12.82703815 0 23.22302862 10.40181248 23.22302862 23.2160438C865.50908473 519.39354283 855.11425934 529.78836935 842.28605611 529.78836935zM710.68578589 204.66596181l0 30.96209864-232.23029078 0 0-30.96209864L710.68578589 204.66596181z"  horiz-adv-x="1024" />

    
    <glyph glyph-name="calendar1" unicode="&#58901;" d="M841.63172238 698.68566642l-59.26611057 0 0 43.40259043c0 12.00155307-9.30038898 21.69663829-20.79663787 21.6966383s-20.79663787-9.69624917-20.79663787-21.6966383l0-43.40259043L324.81861291 698.68566642l0 43.40259043c0 12.00155307-9.30155293 21.69663829-20.80129593 21.6966383-11.49624889 0-20.79663787-9.69624917-20.79663787-21.6966383l0-43.40259043-100.8605514 0c-59.0646875 0-107.11514453-50.14735189-107.11514453-111.76766805l0-470.92009074c0-61.63195904 48.05045703-111.78280391 107.11514453-111.78280392l659.27159467 0c59.0646875 0 107.12213049 50.15084487 107.12213049 111.78280392L948.75385287 586.9179983700001C948.75385287 648.53831453 900.69640989 698.68566642 841.63172238 698.68566642zM907.1524261 115.99790762999999c0-37.69055915-29.38447872-68.37671936-65.52070372-68.37671936L182.36012771 47.62118826999995c-36.13622499 0-65.52070371 30.68732416-65.52070371 68.37671936l0 365.67014741L907.1524261 481.66805504 907.1524261 115.99790762999999zM907.1524261 525.07413845L116.839424 525.07413845l0 61.84385992c0 37.67542329 29.38447872 68.3615835 65.52070371 68.3615835l100.8605514 0 0-43.40259044c0-12.00155307 9.30038898-21.69663829 20.79663787-21.69663829 11.49974187 0 20.80129593 9.69624917 20.80129593 21.69663829L324.81861291 655.27958301l415.95372202 0 0-43.40259044c0-12.00155307 9.30038898-21.69663829 20.79663787-21.6966383s20.79663787 9.69624917 20.79663787 21.6966383L782.36561181 655.27958301l59.26611057 0c36.13622499 0 65.52070371-30.68732416 65.52070372-68.36158351L907.1524261 525.07413845zM486.36455139 147.10670676999996c18.74631453 16.65756957 28.13053269 38.57891669 28.1305327 65.74075563 0 19.49844935-6.07296285 35.7799515-18.23751737 48.82587762-12.14941867 13.10297657-28.68124445 20.78150201-49.62341888 23.11358577l0 0.80103538c38.63131022 11.31811271 57.95162226 36.70207261 57.95162226 76.25317604 0 21.44631467-7.47826745 38.90491961-22.42665131 52.34204786-14.94838386 13.47904398-34.77283613 20.17839787-59.42911204 20.17839786-25.30478877 0-47.42406599-5.72367417-66.34851782-17.1698597l0-36.06403868c17.92548637 14.32199395 37.06300416 21.43932871 57.37413176 21.43932871 35.49819221 0 53.25369117-16.57024739 53.25369117-49.71074105 0-35.86378069-23.23583659-53.83467463-69.70634468-53.83467463l-22.99599189 0 0-31.57218873 24.10905714 0c52.46429981 0 78.68771669-19.13402482 78.68771669-57.35550293 0-17.16287374-5.82962517-30.811904-17.47024782-41.02044331-11.65925035-10.22367517-27.44010525-15.32095829-47.3821514-15.32095829-24.92173539 0-47.28318635 7.97542059-67.0855168 23.99844921l0-39.58137515c16.82057102-10.69055773 38.93519133-16.03816448 66.33338197-16.03816448C442.65458688 122.13141389999998 467.59844409 130.49454591999995 486.36455139 147.10670676999996zM643.06120135 160.19338354l-64.85239922 0 0-32.96119239L744.16276253 127.23219114999995l0 32.96119239-64.666112 0L679.49665053 435.75990045l-102.97141818-31.23337899 0-35.10349597 66.53480506 20.09806166L643.06120135 160.19338354 643.06120135 160.19338354z"  horiz-adv-x="1024" />

    
    <glyph glyph-name="accountoverview" unicode="&#58902;" d="M840.73987186 783.80727751L241.54008121 783.80727751c-59.76559389 0-108.36792661-47.63480291-108.36792662-106.20117333l0-122.25447367-38.857183 0c-10.73829319 0-19.42742699-8.52147541-19.42742698-19.03855275 0-10.52872021 8.68913379-19.03855275 19.42742698-19.03855275l38.857183 0 0-266.53973731-38.857183 0c-10.73829319 0-19.42742699-8.52147541-19.42742698-19.04204573 0-10.53221319 8.68913379-19.03505977 19.42742698-19.03505976l38.857183 0 0-122.27310251c0-58.55821938 48.60116878-106.19302343 108.36792662-106.19302343l599.19979178 0c59.76210091 0 108.37141959 47.63480291 108.3714196 106.19302343L949.11129145 677.6072692600001C949.11129145 736.17363854 900.50197277 783.80727751 840.73987186 783.80727751zM910.25527239 90.38574477999998c0-37.54735161-31.18564352-68.11242496-69.5130715-68.11242496L241.54008121 22.273319819999983c-38.32510009 0-69.51772843 30.56507335-69.51772843 68.11242496L172.02235165 212.65884729000004l77.71203811 0c10.73712925 0 19.42277006 8.50284658 19.42277006 19.03505977 0 10.52057031-8.68564082 19.04204573-19.42277006 19.04204572l-77.71203811 0L172.02235165 517.2756901l77.71203811 0c10.73712925 0 19.42277006 8.50983253 19.42277006 19.03855275 0 10.51707733-8.68564082 19.03855275-19.42277006 19.03855274l-77.71203811 0L172.02235165 677.6072692600001c0 37.56248747 31.19262834 68.12406784 69.51772842 68.12406784l599.19979179 0c38.32859307 0 69.5130715-30.56041643 69.5130715-68.12406784l0-587.22152448L910.25527239 90.38574477999998zM599.41876509 238.84034957999995l0 29.74541028c84.64541469 19.05019563 148.47789056 100.77905123 148.47789056 198.44244821 0 111.74903922-83.53700523 202.65719694-186.20803642 202.65719694-102.65589533 0-186.19290055-90.90932167-186.19290054-202.65719694 0-80.95925703 44.15006834-150.45835662 107.36197518-182.89911012l0-45.00000426c-65.81294194-14.32082887-187.72394894-44.35964131-207.30273451-73.8815067-5.84126805-8.82302749-3.41604125-20.78965191 5.5781376-26.5168202 3.32056917-2.12134571 7.03699968-3.12613205 10.69987157-3.12613205 6.26041401 0 12.37179961 2.97710251 16.05330034 8.55640405 12.38227741 14.20672797 112.61294592 43.02303118 198.46107705 61.01837483 8.95226425 1.89663687 15.36403797 9.67529245 15.36403797 18.62289977l0 45.5472219c12.54993693-3.01552413 25.50388281-4.76778837 38.85718301-4.85045362l0-40.69676942c0-8.8451493 6.20219961-16.50271801 14.98331249-18.50530588 86.13454848-19.81863026 186.57013191-50.61190542 198.6019567-64.63584029 3.71642937-5.60840931 9.93376483-8.66235506 16.29314503-8.66235506 3.62445027 0 7.30362311 1.00478635 10.58926365 3.08771044 8.98952192 5.72716715 11.53001358 17.51914723 5.67360966 26.33053297C787.20442141 190.79105762999995 665.06754162 223.24927488000003 599.41876509 238.84034957999995zM579.99250205 307.84811805000004c-4.81319595 0-9.07800803-1.90362283-12.4661066-4.72936676-1.97580914-0.09081515-3.83868131-0.66248363-5.83777508-0.66248363-81.24101632 0-147.33571755 73.80815645-147.33571754 164.57310549 0 90.77542798 66.09470123 164.58474837 147.33571754 164.58474838 81.2526592 0 147.35085341-73.80815645 147.35085341-164.58474838 0-80.38060146-51.91824498-147.21695971-120.21695716-161.50751686C586.14114418 306.88873813 583.2245851 307.84811805000004 579.99250205 307.84811805000004z"  horiz-adv-x="1024" />

    
    <glyph glyph-name="advantage" unicode="&#58905;" d="M711.79551449 539.01331175c-30.97086939 5.602277-74.49004532 13.66106173-96.30427698 17.71218778-11.09526665 20.1637269-33.72543605 61.02396413-50.9532776 90.40766566-16.62178645 29.07446508-25.81816571 45.08647182-51.64254033 45.08647181-27.07001495 0-37.90572142-19.99855312-51.42396321-45.43172395-17.2874526-29.23839852-40.48517834-70.57056169-51.57050899-90.43002073-21.57454222-4.70437311-65.97796144-14.2224079-97.37356599-19.83710398-20.99581079-3.41029805-37.42882565-15.963572-43.99607049-33.63105086-6.08414015-16.36595212-2.71855101-34.39731234 9.00139751-48.22975799l0.34649369-0.40113857c22.55813927-25.66665133 56.49966816-63.98344609 72.77868676-82.34639785-3.71332559-21.41806167-10.6556281-63.02841424-14.31803464-94.90339764l-0.05340213-0.50297545c-1.43316916-14.73159229 3.51586077-29.16760871 13.93925113-40.65532071 11.33619761-12.49242013 28.28088237-20.25314471 44.22085775-20.25314472 8.6015017 0 17.23156738 1.93862892 25.64926488 5.76372616l0.35021953 0.16144914c28.11570737 13.22515024 70.20668155 33.0411407 92.62820981 43.61728699 22.30478802-10.79596495 62.68440364-30.33625153 91.60238816-44.09915014l0.21609282-0.10059532c8.38168303-3.90458027 17.061425-5.88543378 25.79953649-5.88543379 15.5462885 0 31.47508637 7.27886265 42.61382037 19.47073954 10.5587586 11.55725782 15.62328724 26.20315815 14.26214822 41.24026227l-0.07203135 0.70416612c-3.60279427 31.32357322-8.66235551 73.53501226-11.1834417 94.4587917 15.1600533 17.46380512 47.41878762 54.62065152 69.98686288 80.66236174l0.21981867 0.25583434c11.91244595 14.07089354 15.16874653 33.98251315 8.49718052 51.96295433C748.05818285 522.55545754 731.91825954 535.69243151 711.79551449 539.01331175zM623.76611506 399.41340334l-8.49221313-9.77883651 1.5573611-12.86002734c0.07575719-0.61474831 7.26892666-60.01180308 12.20305442-102.70510527-29.11296505 13.8597681-69.63664213 33.47332756-91.4906153 44.05071538l-24.21112711 11.69759467-12.60916037-5.97857743c-12.94447775-6.13505919-69.72109255-32.86975678-104.88839222-49.40957711-0.39741273-0.17635131-0.71285934-0.28812417-0.94261279-0.36015551-0.04595044 0.02235506-0.09314365 0.0447089-0.14033684 0.0683055 5.04093203 41.87115429 15.68165676 100.77516959 15.79094531 101.38370897l2.52853787 13.95539605-9.41247207 10.6084361c-0.457025 0.51415298-41.09744234 46.31969307-71.4187905 80.72445709 43.30432466 8.09107456 100.50940048 20.81821674 103.10376077 21.39570662l12.81034983 2.85516201 6.36232955 11.47901755c0.34276906 0.61847294 34.51529413 62.24973369 57.51182919 101.10676112l0.65448861 1.1661585c0.13536825 0.2545928 0.26949495 0.50670129 0.40238012 0.7563255 0.33655891-0.58742587 0.63461786-1.10778778 0.88300173-1.54370048l0.16144915-0.2781894c22.76305457-38.81604437 56.49345923-100.54541616 56.83250123-101.1638891l6.64176049-12.15958706 13.62007865-2.53723231c0.64206954-0.11922333 61.91193324-11.53117813 104.72197568-19.3018387C665.63602781 447.62825918 623.76735781 399.41588765 623.76611506 399.41340334zM824.57254905 807.9648479800001l-625.1426138 0c-45.71984813 0-82.91643604-35.04062342-82.91643604-78.11146881l0-516.24904719c0-36.08010691 27.00667805-55.4974431 47.26479014-66.93051021l281.10118731-159.50159204c10.73386837-7.2751368 42.39772635-27.13707892 67.88926791-27.13707891 32.80641987 0 64.44792278 22.61526725 74.03550461 30.1151901l272.16188515 161.28870657c28.28584975 11.74602942 48.52036645 41.92207333 48.52036646 72.96497407L907.48650201 729.85337917C907.48774354 772.92422454 870.29239717 807.9648479800001 824.57254905 807.9648479800001zM849.13886428 224.40402275999998c0-7.60051818-6.19963885-16.77826821-13.00905621-19.25588824l-2.55461876-0.93019372L555.32667851 39.32271410999999l-1.81195389-1.05935303-1.6939721-1.38225133c-9.22991062-7.43906903-27.96916159-18.43870773-38.96755876-18.4958357-5.84196642 0.37505767-23.30452999 8.91446401-35.97951157 17.59544752l-1.04320812 0.71782673L192.51743707 197.45571544999996c-17.65381825 9.96512381-17.65381825 14.45837149-17.65381826 16.14985928L174.86362002 729.85337917c0 10.71151453 11.24926411 19.76134678 24.56631523 19.76134678l625.1426138 0c13.31580959 0 24.56631523-9.04983226 24.56631523-19.76134678L849.13886428 224.40402275999998 849.13886428 224.40402275999998z"  horiz-adv-x="1024" />

    
    <glyph glyph-name="hongbao" unicode="&#58907;" d="M388.46756693 305.55307413c-9.12734507 0-16.52680427 7.3994592-16.52680426 16.52680427 0 9.131712 7.4005504 16.52680427 16.52680426 16.52680427l250.7051072 0c9.12734507 0 16.52680427-7.39509227 16.52680427-16.52680427 0-9.12843733-7.4005504-16.52680427-16.52680427-16.52680427L388.46756693 305.55307413zM373.1774624 228.30791893000003c-9.12843733 0-16.5322624 7.4005504-16.5322624 16.52680427 0 9.1328032 7.40382507 16.5322624 16.5322624 16.5322624l281.303872 0c9.131712 0 16.5322624-7.3994592 16.5322624-16.5322624 0-9.12734507-7.4005504-16.52680427-16.5322624-16.52680427L373.1774624 228.30791893000003zM497.30368533 315.94768213c0 9.131712 7.39509227 16.52680427 16.5224384 16.52680427 9.1328032 0 16.5322624-7.39509227 16.5322624-16.52680427l0-175.27625173c0-9.12843733-7.3994592-16.52680427-16.5322624-16.52680427-9.12734507 0-16.5224384 7.3994592-16.5224384 16.52680427L497.30368533 315.94768213zM626.08417813 459.7279328c6.45528853 6.45528853 16.9186624 6.45528853 23.37395094 0s6.45528853-16.9197536 0-23.37504213L525.5185568 312.41222719999996c-6.45528853-6.45528853-16.9197536-6.45528853-23.37504213 0-6.45528853 6.4596544-6.45528853 16.9186624 0 23.37395093L626.08417813 459.7279328zM524.09957227 335.78617813000005c6.45528853-6.45528853 6.45528853-16.9186624 0-23.37395093-6.4596544-6.45528853-16.92302827-6.45528853-23.37395094 0L376.78495787 436.35289067c-6.45528853 6.45528853-6.4596544 16.9197536 0 23.37504213 6.45528853 6.45528853 16.9197536 6.45528853 23.37504213 0L524.09957227 335.78617813000005zM189.87958187 687.44439787c-18.69566827 0-36.19829653-7.33833387-49.28242667-20.6625984-12.801424-13.03173653-19.66930987-30.17306987-19.34294293-48.27167254l0-468.56399466c-0.32636693-18.40859627 6.57208213-35.75295467 19.4302656-48.8425408 13.01972907-13.25440747 30.49179627-20.54907947 49.195104-20.54907947l643.38617173 0c38.31258453 0 69.48767573 31.16963413 69.48767573 69.48658453L902.75342827 617.95235627c0 38.3180416-31.17072533 69.4909504-69.48767574 69.4909504L189.87958187 687.44439787 189.87958187 687.44439787zM833.26575253 44.066958930000055L189.87958187 44.066958930000055c-28.5761664 0-55.2880064 11.1739584-75.2247392 31.46652907-19.73589227 20.08736427-30.34662293 46.6824096-29.8903648 74.8929152L84.76447787 618.02767147c-0.45734933 27.900512 10.12500053 54.29253333 29.79867626 74.32859626 20.00549973 20.3613376 46.75226773 31.57786453 75.31533654 31.57786454l643.38617173 0c58.43596907 0 105.97631893-47.54034987 105.97631893-105.97522667l0-467.91453653C939.24207147 91.60730880000006 891.7017216 44.066958930000055 833.26575253 44.066958930000055zM122.3544704 631.9075242700001l388.9087488-103.733232 390.1487232 103.45925866c-6.3723328 31.78852907-34.4998816 55.81084693-68.13854827 55.81084694L189.8883136 687.44439787c-18.69566827 0-36.19829653-7.33833387-49.28242667-20.6625984C131.0168256 657.02245973 124.75692053 644.95781653 122.3544704 631.9075242700001zM511.23265707 490.4183872L85.02535253 604.1019754700001l-0.24886826 13.75541866c-0.49991893 27.9670944 10.08133973 54.4224256 29.7954016 74.4977824 20.00549973 20.3613376 46.74790187 31.57786453 75.31533653 31.57786454l643.38617173 0c58.43596907 0 105.97631893-47.54034987 105.97631894-105.9795936l0-14.03375787L511.23265707 490.4183872z"  horiz-adv-x="1024" />

    
    <glyph glyph-name="question" unicode="&#58911;" d="M821.05397134 693.04000057c-170.67983303 170.68099698-447.41180985 170.67983303-618.09280683 0-170.68332601-170.68332601-170.67983303-447.41297379 0-618.09280683 160.69949554-160.69949554 415.39718827-170.07207083 587.09112264-28.16779036l-38.90491961 38.90491961c-150.12303986-120.64658205-370.17480419-111.34037106-509.48154368 27.96636728-149.30570467 149.30570467-149.30570467 391.37894627 0 540.68465096s391.38011022 149.30570467 540.68465095 0.00116394c140.4174757-140.4174757 148.75964985-362.87583915 25.06145109-513.06175032l38.85601906-38.85601906C991.24596509 274.13595477 982.85954845 531.23558855 821.05397134 693.04000057zM524.43932786 551.35577088c84.36831232-9.49249707 65.38331705-72.76494734 56.94799985-85.42199922-8.43648227-21.09236907-86.47452217-71.70893255-99.12924501-102.29263473-12.6535589-30.58253824-11.60336498-87.52937301-11.60336497-87.52937302l75.93183004 0c0 0-4.21824057 60.10906055 37.96300458 85.41850624 42.18590208 25.31410261 113.89483463 99.13390194 82.25977458 169.78681856-50.62122041 81.20608654-100.18409586 89.64140487-164.51605504 87.5305381-64.32846621-2.10737379-131.82265003-33.74592797-153.96870599-131.81915705 52.72859421-7.38628835 78.04153287-10.54734905 78.04153287-10.54734905S440.07218062 560.84826795 524.43932786 551.35577088zM469.60452381 247.64009245l79.09289187 0 0-86.46753622-79.09289187 0 0 86.46753622Z"  horiz-adv-x="1024" />

    
    <glyph glyph-name="label" unicode="&#58917;" d="M467.52683947-26.208798929999944c-26.66490347 0-56.9591328 6.65940373-81.85139734 31.5571264l-252.43736 252.43736c-46.1028096 46.1017184-37.23306453 120.53946667 0 157.7725312l283.987936 283.9868448c12.3408 12.3408 35.65908267 14.29572373 47.9944256 1.95929066 12.56128853-12.56128853 17.4207648-31.24385813-4.26131946-52.92048426l-275.6868768-275.69233387c-28.59144853-28.5848992-25.40418987-47.07863467 1.22796693-73.70970027l245.52690453-245.52362986c21.93204373-21.93204373 41.3983296-23.66975467 66.80033707 1.73443626L827.43481813 383.9989088c25.14768213 25.14877333 31.5571264 46.005664 31.5571264 94.6648288L858.99194347 604.8802336c0 108.5163008-17.70456213 126.22195413-126.22195414 126.22195413L543.44797333 731.10218773c-17.4207648 0-31.5571264 14.1363616-31.5571264 31.55057707 0 17.4207648 14.1363616 31.5571264 31.5571264 31.5571264l189.3231072 0c143.3239936 0 189.32965653-46.005664 189.32965654-189.32965653l0-126.2154048c0-72.6989472-8.14278827-102.8054336-63.1077024-157.7725312L543.44797333 5.348326400000019C526.4365312-11.658748800000012 499.55441387-26.208798929999944 467.52683947-26.208798929999944zM701.22050453 604.8802336c-17.4207648 0-31.5571264-14.16474133-31.5571264-31.55057707 0-17.38692693 14.1363616-31.5571264 31.5571264-31.5571264 17.41421547 0 31.55057707 14.1701984 31.55057707 31.5571264C732.77108053 590.71549227 718.6336288 604.8802336 701.22050453 604.8802336zM701.22050453 478.6648288c-52.19352747 0-94.6648288 42.47130027-94.6648288 94.6648288 0 52.1880704 42.47130027 94.6648288 94.6648288 94.6648288 52.1869792 0 94.65827947-42.4767584 94.65827947-94.6648288C795.878784 521.1361290699999 753.40639147 478.6648288 701.22050453 478.6648288z"  horiz-adv-x="1024" />

    
    <glyph glyph-name="wechat" unicode="&#58936;" d="M500.48985173 529.7952096c22.9940992 0 38.36497707 15.39707413 38.36497707 38.33550613 0 23.1949408-15.34140693 38.1990656-38.36497707 38.1990656-23.02902827 0-46.134464-15.0041248-46.134464-38.1990656C454.38158507 545.19228373 477.49138667 529.7952096 500.48985173 529.7952096zM285.9120928 606.3297813300001c-22.99519147 0-46.24470827-15.0041248-46.24470827-38.1990656 0-22.938432 23.2495168-38.33550613 46.24470827-38.33550613 22.91332693 0 38.2547328 15.39707413 38.2547328 38.33550613C324.14062933 591.3256565300001 308.82541973 606.3297813300001 285.9120928 606.3297813300001zM829.375552 118.94677547000003c-4.6640928-3.52235627-6.64739733-9.58578667-4.97081173-15.1754944l13.217296-43.95031894-54.23904854 29.6753344c-2.06844267 1.1428288-4.38793707 1.7311616-6.70743146 1.7311616-1.1428288 0-2.2900224-0.1408064-3.40665494-0.4475264-29.09136747-7.35034027-59.18584747-14.92335147-88.4944288-14.92335146-136.14283947 0-246.88148907 93.55583787-246.88148906 208.54161706 0 114.984688 110.7386496 208.51105387 246.88148906 208.51105387 133.53736533 0 246.3739296-95.48238187 246.3739296-208.51105387C931.14840213 227.05812053 895.0177792 168.29578560000004 829.375552 118.94677547000003zM412.9723392 230.3545312c-9.08150187-0.7804416-18.30490133-1.17229973-27.4420704-1.17229973-30.84763307 0-56.9471264 5.3375648-87.1256544 11.56690773l-17.5495648 3.54746133c-3.01916267 0.64400107-6.2042368 0.2259456-8.96689067-1.1974048l-77.09779946-38.59201493 20.03606293 60.19223467c1.9571072 5.8920608-0.19647467 12.32224427-5.25351787 15.8697056-77.4601856 53.98799787-116.71584853 119.7655744-116.71584853 195.4596704 0 136.08280533 131.272448 246.82145493 292.64374187 246.82145493 142.652704 0 268.95434027-86.78837227 295.0232704-202.22167787-149.57734933-1.9571072-270.60036267-107.10604907-270.60036267-236.26093546 0-18.7775328 2.85215893-36.96673173 7.6581504-54.51629654C416.1268512 230.21372372999997 414.59216533 230.49533759999997 412.9723392 230.3545312zM959.08820907 284.36763413000006c0 121.2751552-112.49928213 224.60779733-250.590496 235.36479147 0.1921088 1.5095808 0.277248 3.07483093-0.06003414 4.63898773C680.74892267 653.47063253 541.92965973 750.7955114700001 385.49970667 750.7955114700001c-176.7672768 0-320.58900693-123.25736853-320.58900694-274.76671894 0-81.28489493 41.4954752-154.523056 120.1279616-212.28009493l-27.41259946-82.40589333c-1.76063253-5.36376213-0.16591253-11.26128 4.1063232-14.97901974 2.60110827-2.2343552 5.86695573-3.40665493 9.16773226-3.40665493 2.12301973 0 4.2766016 0.5031936 6.25881387 1.47901867l102.91458667 51.502592 12.6846304-2.57054507c31.6881088-6.51095573 59.04504-12.15633173 92.7415584-12.15633173 9.92197653 0 19.98039467 0.4475264 29.846704 1.2836352 3.99498773 0.33618987 7.37653653 2.34896533 9.66546773 5.2524256 37.1075392-92.85180267 139.38358187-159.88681813 259.732032-159.88681814 30.82362027 0 62.03364053 7.4311136 90.0345728 14.44526294l79.32778773-43.366352c2.0968224-1.14719467 4.4163168-1.73552747 6.7063392-1.73552747 3.12940693 0 6.25881387 1.06096427 8.77478294 3.10321067 4.41304213 3.57802453 6.22934187 9.47008533 4.58332053 14.8644096l-20.26091733 67.37120533C921.83986347 156.22022719999995 959.08820907 220.43692052999995 959.08820907 284.36763413000006zM600.19098453 384.0425696c-15.34140693 0-30.6828128-15.4516512-30.6828128-30.767952 0-15.4221792 15.34140693-30.65225067 30.6828128-30.65225067 23.04976747 0 38.27983787 15.2300704 38.27983787 30.65225067C638.4697312 368.61602346999996 623.23965973 384.0425696 600.19098453 384.0425696zM768.74124907 384.0425696c-15.11436907 0-30.455776-15.4516512-30.455776-30.767952 0-15.4221792 15.34140693-30.65225067 30.455776-30.65225067 22.96899413 0 38.47631253 15.2300704 38.47631253 30.65225067C807.2175616 368.61602346999996 791.7408064 384.0425696 768.74124907 384.0425696z"  horiz-adv-x="1024" />

    
    <glyph glyph-name="windcontrol" unicode="&#58937;" d="M387.6565632 796.8328288c35.65035093 4.40103573 71.38802347 8.56084373 107.31234772 9.78117013 70.6152224 0.5359392 141.60265599-6.40835307 209.96496748-24.66304426 28.08607147-7.11566187 55.1384672-17.63906987 82.6580352-26.60923627 29.06953707-8.98981332 56.776848-21.6777184 84.3990208-34.31213867 9.4526208-5.22295467 19.85377707-9.176464 27.80991467-16.74074346 11.46866986-10.53868907 19.03185813-25.0472608 22.34682453-40.15398934 0.3099936-67.6200736 0-135.25870294 0.15717973-202.89842452 0.35911253-7.63195413-0.68875306-15.55425387-4.77979521-22.15362454-6.35814293-11.27765333-19.47392641-17.9654368-32.33429333-17.10422187-17.87593174 0.01418987-34.1691488 15.98759041-33.68778559 34.03598293 0.1375328 67.24131413-0.17246079 134.481536 0.15281386 201.7283072-13.77069973 7.6133984-28.77373333 12.64861013-42.88717227 19.57762134-62.8599264 23.39359788-126.59416534 46.32548054-193.39341012 55.38406079-42.6612256 5.96519253-85.88895467 9.0247424-128.9638688 7.01196694-21.86436908-1.0817024-43.5912064-3.83453333-65.319136-6.43236588-15.02486399-1.26944533-29.75829013-4.63789653-44.48625814-7.68216425-53.82099414-11.58655467-107.5328352-25.4533088-158.019216-47.76629655-13.90604907-7.17023786-28.48447893-12.875648-42.72999253-19.30255679-1.4451808-73.8112128-0.44643413-147.6573536 1.19958827-221.46310932 1.61764267-37.17848747 2.16886293-74.49996586 7.0479872-111.45141654 1.06642134-10.55833707 5.67484693-20.21725547 9.28452585-30.06719253 14.1822048-38.39772267 40.89077013-70.32051093 67.51637868-100.74135681 43.67962027-46.82212587 96.41345387-84.29641707 151.62505279-116.26613972 28.70496639-16.96669013 58.63135147-31.74923413 88.88519468-45.7065856 5.58643307-1.5838048 11.62039254-0.68875306 17.35963945-0.63417708 59.406336 23.22113707 114.61466027 55.89489493 167.05705601 91.94256107 11.82778239 8.02599466 23.75816853 16.17533333 33.7620096 26.48698453 13.50873388 9.7975424 24.04742293 22.96681174 36.88705068 33.6233856 36.0083712 36.3729408 65.6433184 79.99798507 81.33619732 129.01953707 5.41506348 17.1533408 25.355072 26.885392 42.40580907 22.10450559 13.37665813-3.1959904 24.10309013-15.12637547 25.612672-28.80757012 1.73661867-10.8988928-3.47214613-21.10794133-7.027248-31.06157227-19.4750176-51.0856288-51.05179094-96.9450272-88.95286933-136.105728-13.25331627-11.99369493-26.07984533-24.45565333-39.05809707-36.745152-7.35143147-4.98718506-13.474896-11.46866986-20.45302613-16.91757121-16.22336-12.02862292-32.45217813-24.062704-49.48763307-34.96050559-18.6825696-12.51653547-38.52215681-23.2080384-57.376096-35.47788907-29.73864213-15.9330144-59.33320321-32.34848214-90.70477013-44.91413653-9.35438292-3.40338027-18.28962027-8.97562347-28.51940694-9.0247424-10.34658027-0.01855573-20.71390079 0-31.06157226 0-11.6356736-0.1375328-21.72574613 6.3745152-32.05813654 10.83012693-62.61978987 28.89161813-122.79783573 63.49410348-177.66123732 105.38362027-27.6767488 21.29895892-54.23359147 44.24612267-77.81384107 70.04435414-28.71042453 33.38106666-57.03663146 68.1210848-74.96168106 108.70186026-7.75529707 18.3933152-16.55409281 36.78553812-18.53084695 56.92857067-8.33598827 64.44373121-8.3207072 129.58931412-10.00274986 194.42599466-0.37875947 15.40253226 0.32527467 30.83999253-0.39949867 46.2414336-0.44643413 36.71131413 0.32964052 73.41389653 0.34492268 110.1099296 0.90924161 15.64375893 7.5282592 31.33663786 19.9552896 41.2695296 5.27753067 3.9884384 10.1064448 8.81735147 16.40127892 11.24272426 17.3247104 8.7147488 35.30542827 15.98759041 52.9052032 24.11618881C254.09954987 767.66505493 320.87805654 783.56423147 387.6565632 796.8328288M743.71254401 578.79056428c15.33376533 15.1765856 43.5562784 12.01443307 55.88179627-5.46418241 9.40241067-12.9280416 7.17023786-32.14218452-3.9338624-43.36962668-95.15928959-93.25130133-190.16249173-186.6696064-285.3567104-279.90671785-10.7253408-11.51233066-29.11865493-14.0752352-43.07382295-7.32196054-7.70181227 3.62823468-12.5994912 10.9174496-18.97837333 16.26374612-48.93750399 48.16361174-97.80515093 96.42764373-146.86053973 144.48974401-7.32196052 6.32539627-12.94332267 15.28028053-12.79050879 25.25355947-1.27381121 16.51916373 11.31039893 32.86477439 27.57414505 35.97344213 11.30712427 2.68078933 23.80182933-1.11663148 32.17820481-9.09350826 44.87920854-44.39675307 89.6710944-88.86445653 134.60487893-133.21318187C570.0484768 407.69049388 656.66657066 493.468112 743.71254401 578.79056428"  horiz-adv-x="1024" />

    
    <glyph glyph-name="savetime" unicode="&#58948;" d="M948.89473251 384.00465693c0 241.29898496-195.5969115 436.89706155-436.89240348 436.89706154-241.29898496 0-436.89706155-195.59924053-436.89706154-436.89706154 0-241.30364302 195.59924053-436.90753934 436.89706154-436.90753935 99.05589475 0 189.75098653 33.70517731 263.04103083 89.24321565 3.0108672 3.4148773 4.98900423 7.77283357 4.98900423 12.66869475 0 10.69637859-8.67283399 19.36921259-19.36339058 19.36921259-5.55485184 0-10.49611947-2.20284587-14.02276978-5.92975417l-0.24450162 0c-65.58590407-48.26003001-146.30648035-77.15434041-233.96974819-77.15434041-218.49510229 0-395.64608739 177.17427086-395.64608739 395.65540238 0 218.51489507 177.1509851 395.64608739 395.64608739 395.6460874 218.51023815 0 395.64608739-177.13119232 395.64608739-395.6460874 0-66.72574919-15.66093312-129.54528882-44.87309539-184.72239559l0-0.32716686c-0.53673984-1.84075037-1.12005234-3.63958613-1.12005234-5.61888825 0-10.69521465 8.67283399-19.36339058 19.36804864-19.36339058 8.33285917 0 15.30000157 5.34527886 18.01397362 12.7117733l0-0.13040071C930.58386489 243.63375274999999 948.89473251 311.66584149000005 948.89473251 384.00465693L948.89473251 384.00465693zM506.99236693 617.26418489c0 11.49974187-9.35045347 20.84553842-20.87348224 20.84553842-11.50439993 0-20.85019534-9.34579655-20.85019534-20.84553842l0-247.99368192c0 0-2.51371293-41.92510066 41.70039182-41.70039182l224.73688861 0c0.06869333 0 0.1560155-0.04424363 0.22470883-0.04424363 11.52302763 0 20.87348224 9.34579655 20.87348224 20.85019534 0 11.49857792-9.35045347 20.84903139-20.85019534 20.89443897L506.96908117 369.27050297000005 506.96908117 617.12796217C506.96908117 617.17220579 506.99236693 617.2152843399999 506.99236693 617.26418489L506.99236693 617.26418489zM506.99236693 617.26418489"  horiz-adv-x="1024" />

    
    <glyph glyph-name="aboutus" unicode="&#58953;" d="M511.99883605 801.47778446c-230.56651378 0-417.47661938-186.91010674-417.47661938-417.47661937 0-230.56767773 186.91010674-417.47778446 417.47661938-417.47778447 230.56767773 0 417.47778446 186.91010674 417.47778446 417.47778447C929.47661938 614.56767773 742.56651378 801.47778446 511.99883605 801.47778446L511.99883605 801.47778446zM655.93481102 43.225974329999985c-45.56119381-19.27490446-93.98888221-29.04333995-143.93597611-29.04333995-49.94592882 0-98.37361721 9.76843549-143.9359761 29.04333995-44.0336384 18.61940679-83.58823481 45.29340643-117.56585756 79.27219314-0.05472142 0.05472142-0.10944398 0.10944398-0.15950848 0.16882232C295.33167616 228.56311807999998 398.28097365 296.80128683 513.59159182 296.80128683c113.28590848 0 217.24115627-68.61190713 262.27958215-171.87905764-0.79172039-0.80452835-1.56947001-1.62302749-2.3693403-2.42406286C739.52304583 88.51937963 699.96961451 61.84537997999996 655.93481102 43.225974329999985L655.93481102 43.225974329999985zM513.58693376 362.07865287000004c-65.69651314 0-119.1399845 53.44929337-119.1399845 119.14464142 0 65.69651314 53.44347136 119.14114845 119.1399845 119.14114845 65.69534805 0 119.14464142-53.44463531 119.14464142-119.14114845C632.73157518 415.52794624 579.28228295 362.07865287000004 513.58693376 362.07865287000004L513.58693376 362.07865287000004zM809.74983054 164.58510450000006c-24.80996352 47.81876224-60.81695175 88.90091293-105.57827527 120.1098422-33.84605696 23.58978219-71.26766478 40.46391069-110.69418837 50.14153103 51.74243669 28.35291363 86.90764003 83.33791118 86.90764003 146.38681656 0 91.97581653-74.82342173 166.79923826-166.79807317 166.79923826s-166.79923826-74.82342173-166.79923826-166.79923826c0-63.05356231 35.16520334-118.03856099 86.91695389-146.39147463-38.39379342-9.42846179-74.90142891-25.67852715-108.02911688-48.29961557-46.6987099-31.88654877-84.1657253-74.57892011-109.53455046-124.4887552-18.07335197 24.02755698-33.11837298 50.12406613-44.91617508 78.02174009-19.27490446 45.56119381-29.04333995 93.98888221-29.04333995 143.93597611 0 49.94592882 9.76843549 98.37361721 29.04333995 143.9359761 18.62406371 44.0336384 45.29340643 83.58823481 79.27219314 117.56585756 33.97762275 33.9787867 73.53687495 60.65278635 117.56585756 79.27685007 45.56235776 19.27024754 93.99004615 29.03868302 143.93597611 29.03868302 49.9470939 0 98.37478229-9.76843549 143.93597611-29.03868302 44.03480349-18.62406371 83.58823481-45.29806336 117.5670215-79.27685007 33.98227968-33.97762275 60.65278635-73.53221803 79.27685007-117.56585756 19.27024754-45.56235776 29.04333995-93.99004615 29.04333995-143.9359761 0-49.9470939-9.77309241-98.37478229-29.04333995-143.93597611C841.39071374 213.14435869 826.98256157 187.90826325 809.74983054 164.58510450000006L809.74983054 164.58510450000006zM809.74983054 164.58510450000006"  horiz-adv-x="1024" />

    
    <glyph glyph-name="home" unicode="&#58956;" d="M922.84479488 430.20970667c-25.5376475 26.1873243-70.88577536 74.39728981-123.48396885 130.18332274-66.36016071 70.47128633-141.63416405 150.35706254-194.83196985 204.8518929-57.67801287 59.20207531-124.77982947 59.20207531-182.50324992 0.04540758C369.65910869 711.58256299 294.29428907 632.52460089 227.79674169 562.79380537c-52.96611101-55.59974571-100.48797696-105.47814627-126.62523676-132.1661167-14.13104867-14.49896619-18.51578368-34.08240867-11.44851343-51.02872348 8.58318279-20.45666418 30.84566869-32.65032647 59.65731385-32.65032647l37.1293696 0 3.78861568-3.97024597 0-303.86238009c0-42.30116807 37.91294009-80.76831175 79.5178587-80.76831175l99.01048718 0c40.13208576 0 79.52251677 39.99004217 79.52251677 80.76831175L448.34915328 212.29092978000006l3.83402325 3.97024597 29.08874752 0 0 38.70000356-45.25265578 0-0.00465693-0.00465693-19.74644395 0c-3.64540814 0-6.60038883-2.95498069-6.60038883-6.60038883l0-21.1447626c0-0.43078883 0.04424363-0.85226382 0.12341475-1.2597669l0-186.83442744c0-19.3016832-22.21242141-42.06947328-40.9645568-42.06947328L269.82080739-2.9522966700000097c-19.85705187 0-40.9144923 21.6128091-40.9144923 42.06947328L228.90631509 358.86519865l0.2957312 26.78344362-79.81708288 0c-13.94941952 0-22.25899293 4.61642979-24.10440021 8.95925021-1.38783971 3.27865458 1.56830493 6.97179933 3.4148773 8.91384263 26.22807495 26.78344363 73.84192114 76.74800128 126.99431822 132.48862663 66.40673223 69.63998037 141.68073671 148.6525349 193.90984761 202.17401458 42.62018503 43.6878427 84.73506589 43.73325027 127.40415033 0 52.97076793-54.26313557 128.10389163-134.01268907 194.32782961-204.39316025 52.73441621-55.92225565 98.22458766-104.2731008 124.03817359-130.68746297 1.10608043-1.20038855 4.79922403-5.35808569 3.32056917-9.00582172-1.79650674-4.20194077-9.78706432-8.4492891-23.73182578-8.44928911l-79.90906197 0 0.38654635-26.78344362 0-319.74918599c0-20.87115321-23.83079083-42.06947328-40.91798528-42.06947328l-99.00583026 0c-20.68952291 0-40.95989987 20.83040256-40.95989988 42.06947328L614.55227221 226.58730893999996c0.01979278 0.20491605 0.03143566 0.41216 0.03143566 0.62289807l0 21.14476259c0 3.64540814-2.95498069 6.60038883-6.60038883 6.60038883L588.27879083 254.95535843000005l-0.00465693 0.00465693-51.69819307 0 0-38.70000355 35.5342848 0 3.88408776-3.97024598 0-173.17491712c0-42.30116807 37.86171051-80.76831175 79.5178587-80.76831175l99.00583026 0c40.09017117 0 79.48060217 39.99004217 79.48060216 80.76831175L833.99860451 342.97839275l3.83053028 3.97024597 37.1293696 0c28.63001486 0 50.84243627 12.00737507 59.24748288 32.14152931C941.36407267 396.17736249 937.02125227 415.75614805 922.84479488 430.20970667z"  horiz-adv-x="1024" />

    
    <glyph glyph-name="securityguarantee" unicode="&#58964;" d="M858.25407147 703.05213653c-10.3826016 9.63163093-24.05615467 14.93535893-38.17286827 14.93535894-1.28800107 0-2.5672704-0.054576-3.85527147-0.13207467-0.792448-0.05566827-9.77680427-0.58396693-23.85094826-0.58396693-23.30627627 0-68.80437973 1.56961493-111.90330774 12.09193173-55.65912533 13.57640747-119.9052896 76.53457173-138.61078186 88.96378453-9.4100512 6.2468064-20.26200853 9.3674816-31.1085088 9.3674816-10.81702827 0-21.66461973-3.12067413-31.07467094-9.33801066-2.27255893-1.52595413-69.5247872-72.9565472-135.3274688-88.99325654-43.08146347-10.5223168-89.45060587-12.09193173-112.74269226-12.09193173-14.07086933 0-23.05413333 0.54139733-23.93717867 0.60143147-1.21486933 0.07204053-2.44720213 0.13207467-3.679536 0.13207466-14.14290987 0-27.86449173-5.33865707-38.28857067-14.99539306-11.315856-10.49830293-17.75040533-25.16951253-17.75040533-40.5622208l0-138.93496427c0-513.62221333 338.5271552-579.7796416 352.90801813-582.34581973 3.283312-0.58396693 6.57972267-0.86121493 9.8925056-0.86121494 3.31278293 0 6.64303147 0.277248 9.89578027 0.86121494 14.38195413 2.57927787 355.39888213 68.72360747 355.39888213 582.34581973L876.04704747 662.4473472C876.04704747 677.85315413 869.58302613 692.5418272 858.25407147 703.05213653L858.25407147 703.05213653 858.25407147 703.05213653zM820.0812032 523.50037547c0-473.06654187-309.32881813-527.6559712-309.32881813-527.6559712s-306.83467947 54.58942933-306.83467947 527.6559712L203.9177056 662.4353408c0 0 10.57034347-0.73350613 27.70621973-0.73350613 29.34787627 0 78.7307232 2.1404832 126.06259094 13.70411626 77.5027552 18.87904427 153.0658688 96.7190816 153.0658688 96.7190816s78.922832-77.85204373 156.3524544-96.7190816c47.387536-11.56363307 95.90916907-13.70411627 125.28651626-13.70411626 17.090032 0 27.70621973 0.73350613 27.70621974 0.73350613L820.0812032 523.50037547 820.0812032 523.50037547 820.0812032 523.50037547zM684.75264213 552.2893898699999L467.95253547 337.05344l-107.53720214 106.7731328c-13.35373653 13.25222507-35.0227232 13.25222507-48.3589952 0-13.35482773-13.26423147-13.35482773-34.75311573 0-48.0053408l125.43168854-124.54100373c1.46701227-2.51924373 3.28767787-4.91186987 5.4532672-7.06436054 6.88971627-6.83077333 15.98104107-10.14355733 25.01124053-9.92197653 9.0269248-0.22157973 18.1171584 3.07810453 25.00687467 9.92197653 2.1699552 2.1699552 3.98625493 4.5451168 5.4532672 7.06436054l234.70005226 232.9983616c13.35373653 13.25222507 13.35373653 34.75857387 0 48.01079786C719.7579008 565.5710858699999 698.10637867 565.5710858699999 684.75264213 552.2893898699999L684.75264213 552.2893898699999 684.75264213 552.2893898699999zM684.75264213 552.2893898699999"  horiz-adv-x="1024" />

    
    <glyph glyph-name="store" unicode="&#59085;" d="M792.00000031 324c-60 0-112.00000031 34.00000031-139.99999969 84-28.00000031-49.99999969-79.99999969-84-139.99999967-84s-112.00000031 34.00000031-139.9999997 84c-28.00000031-49.99999969-79.99999969-84-139.99999969-84-88.00000031 0-160.00000031 72-160.00000031 160.00000031l0 0c0 4.00000031 0 6 1.99999968 10.00000032l120 259.99999968c0 1.99999969 1.99999969 1.99999969 4.00000032 4.00000032 0 0 0 1.99999969 1.99999968 1.99999968 1.99999969 1.99999969 4.00000031 1.99999969 6 4.00000032 0 0 0 0 0 0C207.99999969 763.99999969 210.00000031 763.99999969 213.99999969 763.99999969l595.99999969 0c4.00000031 0 6 0 10.00000031-1.99999969 0 0 0 0 0 0 1.99999969 0 4.00000031-1.99999969 6-4.00000031 0 0 0-1.99999969 1.99999969-1.99999969 1.99999969-1.99999969 1.99999969-1.99999969 4.00000031-4.00000031l120-259.99999969C951.99999969 490.00000031 951.99999969 487.99999969 951.99999969 484.00000031l0 0C951.99999969 396 879.99999969 324 792.00000031 324zM798.00000031 724.00000031L225.99999969 724.00000031 111.99999969 480c1.99999969-64.00000031 54-115.99999969 120-115.99999969 52.00000031 0 96 34.00000031 112.00000031 79.99999969l12 0 30 0 12 0c16.00000031-46.00000031 60-79.99999969 112.00000031-79.99999969s96 34.00000031 112.00000032 79.99999969l12 0 30 0 12 0c16.00000031-46.00000031 60-79.99999969 112.0000003-79.99999969 64.00000031 0 118.00000031 52.00000031 120 115.99999969L798.00000031 724.00000031zM752 523.99999969L291.99999969 523.99999969c-12 0-19.99999969 7.99999969-19.99999969 19.99999968s7.99999969 19.99999969 19.99999969 19.9999997l460.00000031 0c12 0 19.99999969-7.99999969 19.99999969-19.99999969S764 523.99999969 752 523.99999969zM171.99999969 283.99999969c12 0 19.99999969-7.99999969 19.99999969-19.99999969l0-180c0-22.00000031 18-40.00000031 40.00000031-40.00000031l559.99999969 0c22.00000031 0 40.00000031 18 40.00000031 40.00000031l0 180c0 12 7.99999969 19.99999969 19.99999969 19.99999969s19.99999969-7.99999969 19.99999967-19.99999969l0-180c0-43.99999969-36-79.99999969-79.99999967-79.99999969L231.99999969 4.0000003100000185c-43.99999969 0-79.99999969 36-79.99999969 79.99999969l0 180C152 276 159.99999969 283.99999969 171.99999969 283.99999969z"  horiz-adv-x="1024" />

    
    <glyph glyph-name="ico-exit" unicode="&#58884;" d="M511.98557979-66C456.32351972-66 402.2689625-55.04486075 351.42189277-33.332736039999986 302.27511904-12.458651069999974 258.20163916 17.457208300000048 220.32495459 55.58689658000003 182.44827089 93.71153643000002 152.72196347 138.13664472999994 131.91969307 187.57107743999995 110.41272881 238.75101357000005 99.50000029 293.13040489 99.50000029 349.18588095999996 99.50000029 416.26591318 115.83962597 482.85119589 146.7170167 541.84991982 176.57122256 598.84819511 219.93875177 648.89349229 272.16637051 686.5700833 286.67404268 697.0355214799999 306.8355667 693.64422393 317.20410107 679.07060829 327.56887461 664.50204023 324.26232911 644.24386903 309.75465693 633.83648613 265.61722783 601.91386846 228.99068721 559.7176514600001 203.823575 511.60969834 177.40882988 461.17440938 164.02214902 406.53881075 164.02214902 349.18588095999996 164.02214902 255.61662596999997 200.22863223 167.63852958999996 265.97082852 101.49624902000005 331.67791777 35.32872364000002 419.05497852-1.1198305699999764 511.98557979-1.1198305699999764 604.88232646-1.1198305699999764 692.28822675 35.32872364000002 758.03042393 101.49624902000005 823.77136777 167.63852958999996 859.94901143 255.61662596999997 859.94901143 349.18588095999996 859.94901143 406.47444229 846.59117012 461.20848721 820.14256777 511.60969834 794.97545732 559.68736084 758.31882295 601.91386846 714.18264893 633.77211943 699.70381631 644.18076182 696.33332158 664.43767354 706.73194971 679.0062416000001 717.135592 693.57985723 737.26200898 697.0064920899999 751.7408416 686.50571396 803.99855146 648.82912295 847.42877744 598.78382842 877.24912783 541.78681522 908.16037403 482.78809132 924.49999971 416.19649717 924.49999971 349.1215125 924.49999971 293.06603643000005 913.58727119 238.68664511999998 892.04519727 187.47263291000002 871.27803653 138.03819932 841.52288955 93.61309276999998 803.64495166 55.48845204999998 765.76826709 17.36381044999996 721.69102637-12.523020409999958 672.54926768-33.495547269999975 621.66834336-55.07515136999996 567.6476416-66 511.98557979-66L511.98557979-66ZM521.67825898 384.53513613C503.86404307 384.53513613 489.42032011 399.01030722 489.42032011 416.97522041L489.42032011 801.52962422C489.42032011 819.42638349 503.86404307 834 521.67825898 834 539.49247666 834 553.97130839 819.42638349 553.97130839 801.52962422L553.97130839 416.97522041C553.97130839 399.01030722 539.49247666 384.53513613 521.67825898 384.53513613L521.67825898 384.53513613Z"  horiz-adv-x="1024" />

    
    <glyph glyph-name="camera" unicode="&#58932;" d="M867.947 26.54499999999996h-704.352c-55.302 0-100.046 44.745-100.046 100.046v431.358c0 55.302 44.745 100.046 100.046 100.046h100.55v41.226c0 24.132 19.607 44.24 44.24 44.24h414.768c24.132 0 44.24-19.607 44.24-44.24v-41.226h100.55c55.302 0 100.046-44.745 100.046-100.046v-431.358c0-54.799-44.745-100.046-100.046-100.046zM163.596 608.73c-27.651 0-50.275-22.624-50.275-50.275v-431.358c0-27.651 22.624-50.275 50.275-50.275h704.352c27.651 0 50.275 22.624 50.275 50.275v431.358c0 27.651-22.624 50.275-50.275 50.275h-150.322v85.467h-403.708v-85.467h-150.322zM508.982 124.07799999999997c-116.637 0-211.153 95.021-211.153 211.153s95.021 211.153 211.153 211.153c116.637 0 211.153-95.021 211.153-211.153s-94.516-211.153-211.153-211.153zM508.982 496.617c-88.987 0-161.383-72.396-161.383-161.383s72.396-161.383 161.383-161.383 161.383 72.396 161.383 161.383-72.396 161.383-161.383 161.383zM811.135 472.987h-50.275c-19.607 0-35.696 16.09-35.696 35.696v21.115c0 19.607 16.09 35.696 35.696 35.696h50.275c19.607 0 35.696-16.09 35.696-35.696v-20.613c0-20.11-16.09-36.197-35.696-36.197z"  horiz-adv-x="1024" />

    
    <glyph glyph-name="server" unicode="&#58904;" d="M512.18374854-0.03429960999994819m-49.24458985 0a49.24458985 49.24458985 0 1 1 98.48917969 0 49.24458985 49.24458985 0 1 1-98.48917969 0ZM838.88852627-0.03429960999994819m-49.24458984 0a49.24458985 49.24458985 0 1 1 98.4891788 0 49.24458985 49.24458985 0 1 1-98.4891788 0ZM185.11147373-0.03429960999994819m-49.24458896 0a49.24458985 49.24458985 0 1 1 98.4891788 0 49.24458985 49.24458985 0 1 1-98.4891788 0ZM875.82196778 777.956717c0 30.86974247-25.17354052 56.04328301-56.04328301 56.043283H204.58881143C173.71906894 834 148.54552842 808.82645947 148.54552842 777.956717v-126.9701921c0-15.25112315 6.24744756-29.21600654 16.16986582-39.32217246-9.92241739-10.10616592-16.16986494-24.07104932-16.16986582-39.32217158v-126.97019209c0-15.25112315 6.24744756-29.21600654 16.16986582-39.32217246-9.92241739-10.10616592-16.16986494-24.07104932-16.16986582-39.32217246v-126.9701921c0-30.86974247 25.17354052-56.04328301 56.04328301-56.04328301h615.18987334c30.86974247 0 56.04328301 25.17354052 56.04328301 56.04328303v126.97019208c0 15.25112315-6.24744756 29.21600654-16.16986495 39.32217246 9.92241739 10.10616592 16.16986494 24.07104932 16.16986495 39.32217246v126.97019209c0 15.25112315-6.24744756 29.21600654-16.16986495 39.32217158 9.92241739 10.10616592 16.16986494 24.07104932 16.16986495 39.32217246V777.956717z m-694.01796593-1e-8c0 12.49489599 10.10616592 22.60106191 22.60106104 22.60106192h615.18987422c12.49489599 0 22.78481045-10.10616592 22.78480956-22.60106192v-126.97019209c0-12.49489599-10.10616592-22.78481045-22.78480956-22.78480957H204.58881143c-12.49489599 0-22.60106191 10.10616592-22.60106104 22.78480957V777.956717h-0.18374854z m660.75949336-205.61453613v-126.97019209c0-12.49489599-10.10616592-22.60106191-22.78481044-22.60106191H204.58881143c-12.49489599 0-22.60106191 10.10616592-22.60106104 22.60106191v126.97019209c0 12.49489599 10.10616592 22.60106191 22.60106104 22.60106104h615.18987334c12.49489599 0 22.78481045-10.10616592 22.78481044-22.60106104z m0-332.58472911c0-12.49489599-10.10616592-22.60106191-22.78481044-22.60106103H204.58881143c-12.49489599 0-22.60106191 10.10616592-22.60106104 22.60106105v126.97019208c0 12.49489599 10.10616592 22.60106191 22.60106104 22.60106191h615.18987334c12.49489599 0 22.78481045-10.10616592 22.78481044-22.60106191v-126.97019208zM504.83380977 697.84238467h207.63577002c9.18742324 0 16.72111055 7.5336873 16.72111054 16.72111054s-7.5336873 16.72111055-16.72111054 16.72111055H504.83380977c-9.18742324 0-16.72111055-7.5336873-16.72111055-16.72111055s7.5336873-16.72111055 16.72111055-16.72111054zM335.41772187 714.37974668m-19.84483476 0a19.84483477 19.84483477 0 1 1 39.68966864 0 19.84483477 19.84483477 0 1 1-39.68966864 0ZM504.83380977 492.22784854h207.63577002c9.18742324 0 16.72111055 7.5336873 16.72111054 16.72111054s-7.5336873 16.72111055-16.72111054 16.72111055H504.83380977c-9.18742324 0-16.72111055-7.5336873-16.72111055-16.72111055 0.18374854-9.37117177 7.5336873-16.72111055 16.72111055-16.72111054zM712.46957979 319.87178407H504.83380977c-9.18742324 0-16.72111055-7.5336873-16.72111055-16.72111053s7.5336873-16.72111055 16.72111055-16.72111055h207.63577002c9.18742324 0 16.72111055 7.5336873 16.72111054 16.72111055s-7.5336873 16.72111055-16.72111054 16.72111053zM335.41772187 508.76521055m-19.84483476 0a19.84483477 19.84483477 0 1 1 39.68966864 0 19.84483477 19.84483477 0 1 1-39.68966864 0ZM335.41772187 303.15067353999996m-19.84483476 0a19.84483477 19.84483477 0 1 1 39.68966864 0 19.84483477 19.84483477 0 1 1-39.68966864 0ZM838.88852627 65.93140077999999c-30.50224541 0-56.22703154-20.9473251-63.76071885-49.24458984H575.94446738a66.18619863 66.18619863 0 0 1-47.0396083 47.0396083v52.18456464c0 9.18742324-7.5336873 16.72111055-16.72111054 16.72111055s-16.72111055-7.5336873-16.72111056-16.72111055v-52.18456464a66.18619863 66.18619863 0 0 1-47.03960829-47.0396083H248.68844404c-7.34993876 28.29726386-33.07472403 49.24458985-63.76071885 49.24458984-36.38219677 0-65.96570039-29.58350363-65.9656995-65.96570039s29.58350363-65.96570039 65.9656995-65.96570039c30.50224541 0 56.22703154 20.9473251 63.76071885 49.24458983h199.73458565c7.34993876-28.29726386 33.07472403-49.24458985 63.76071885-49.24458983 30.68599394 0 56.22703154 20.9473251 63.76071884 49.24458983h199.36708858c7.34993876-28.29726386 33.07472403-49.24458985 63.76071885-49.24458983 36.38219677 0 65.96570039 29.58350363 65.96569952 65.96570039s-29.76725215 65.96570039-66.14944806 65.96570039zM185.11147373-32.557778910000025c-18.00735029 0-32.70722783 14.69987753-32.70722696 32.70722784S167.10412432 32.85667588000001 185.11147373 32.85667588000001s32.70722783-14.69987753 32.70722783-32.70722695-14.88362608-32.70722783-32.70722783-32.70722784z m327.07227481 0c-18.00735029 0-32.70722783 14.69987753-32.70722785 32.70722784s14.69987753 32.70722783 32.70722785 32.70722695 32.70722783-14.69987753 32.70722694-32.70722695-14.69987753-32.70722783-32.70722694-32.70722784z m326.70477773 0c-18.00735029 0-32.70722783 14.69987753-32.70722783 32.70722784s14.69987753 32.70722783 32.70722783 32.70722695 32.70722783-14.69987753 32.70722696-32.70722695-14.69987753-32.70722783-32.70722696-32.70722784z"  horiz-adv-x="1024" />

    
    <glyph glyph-name="dislike" unicode="&#58949;" d="M879.396875 384q-4.3875 21.965625-14.934375 42.1875 13.190625 28.996875 8.803125 57.121875-4.3875 31.640625-30.76875 57.121875 9.675 28.996875 3.515625 57.121875-8.803125 34.284375-40.44375 58.89375 0 2.64375-1.771875 10.546875-6.159375 32.5125-28.996875 57.121875-46.575 51.8625-148.528125 51.8625H624.5q-50.990625 0-95.79375-6.159375t-65.925-11.86875-52.734375-16.25625h-1.771875q-49.21875-15.834375-75.6-15.834375H202.596875q-24.609375 0-42.1875-17.578125t-17.578125-43.059375v-296.184375q0-25.48125 17.578125-43.059375t43.059375-17.578125h92.278125q23.7375 0 43.059375-11.41875 28.125-17.578125 54.50625-44.83125 49.21875-51.8625 65.053125-123.91875 1.771875-6.159375 3.515625-18.45 0-0.871875 0.871875-4.3875v-0.871875q6.159375-37.8 14.0625-56.25 16.70625-37.8 53.60625-50.090625 25.48125-7.903125 51.8625-6.159375 32.5125 2.64375 56.25 21.09375 26.38125 19.35 40.44375 52.734375 14.0625 35.15625 14.0625 84.375v2.64375q-2.64375 43.059375-16.70625 83.503125h80.859375q33.4125 0 61.5375 15.834375 19.35 11.41875 36.028125 32.090625t23.7375 47.896875q5.2875 25.48125 0.871875 51.8625z m-74.728125 26.353125q21.965625-35.15625 14.934375-64.153125-6.159375-28.125-30.76875-42.1875-14.0625-7.903125-32.5125-7.903125h-95.79375q-26.38125 0-40.44375-21.965625-14.934375-21.965625-4.3875-46.575 14.0625-32.5125 16.70625-78.215625 0-66.796875-28.996875-87.890625-21.965625-15.834375-54.50625-6.159375-12.31875 4.3875-17.578125 16.25625t-9.675 43.509375l-5.2875 26.38125q-19.35 87.890625-79.9875 151.171875-31.640625 34.284375-66.796875 55.378125-11.41875 6.159375-21.965625 10.546875V667.05q28.996875 1.771875 79.9875 18.45 29.896875 9.675 49.66875 14.934375t60.215625 10.546875T624.5 716.26875h1.771875q74.7 0 103.725-31.640625 8.803125-8.803125 12.740625-19.35t4.3875-15.384375-0.45-6.58125q-1.771875-19.35 14.934375-28.125 21.965625-13.190625 25.48125-29.896875 4.3875-19.35-6.159375-36.928125-7.03125-10.546875-4.8375-22.415625t12.740625-18.9q22.865625-14.934375 25.48125-31.640625 2.64375-14.934375-7.903125-29.896875-13.190625-16.70625-1.771875-35.15625zM202.625 665.25v0.871875h85.246875v-297.95625h-84.375q-0.871875 0-0.871875 0.871875V665.221875z"  horiz-adv-x="1024" />

    
    <glyph glyph-name="dislike1" unicode="&#58950;" d="M352.053125 298.75312499999995q-5.2875 7.903125-7.03125 19.771875T343.25 338.296875V645.028125q-2.64375 43.059375 10.546875 63.28125 3.515625 5.2875 7.903125 8.803125T369.603125 721.5l2.64375 0.871875q60.6375 14.934375 71.184375 19.35 23.7375 11.41875 60.6375 19.35t65.053125 9.675q40.44375 2.64375 87.890625 0 2.64375 0 7.48125-0.45t18.9-3.515625 26.803125-7.903125 29.446875-14.0625 28.996875-21.09375 22.415625-30.31875 13.6125-41.315625q0.871875-0.871875 3.065625-2.19375t7.48125-6.159375 10.096875-10.546875 9.675-15.384375 7.903125-20.64375 3.065625-26.803125-4.3875-33.4125q2.64375-1.771875 5.709375-5.2875t10.546875-14.934375 11.41875-23.7375 3.065625-31.190625-9.675-37.35q0.871875-3.515625 3.515625-8.353125t6.58125-20.64375 5.2875-30.76875-3.065625-34.284375-15.834375-36.028125q-0.871875-1.771875-3.515625-5.2875t-12.740625-12.740625-21.09375-15.834375-29.446875-12.31875-38.671875-5.709375h-71.184375q-20.221875 2.64375-23.7375-3.515625-1.771875-1.771875-2.19375-3.515625t-0.45-4.3875 0.45-4.3875 2.19375-7.48125 2.64375-10.096875q7.03125-28.125 9.225-55.8t-0.871875-61.0875-21.09375-59.765625-50.540625-39.54375q-1.771875-0.871875-5.709375-2.19375t-14.5125-3.515625-20.64375-1.771875-22.415625 6.159375-21.54375 17.128125-16.25625 33.834375-7.903125 54.05625q0 2.64375-0.45 8.803125t-6.159375 24.609375-16.70625 38.221875-35.15625 48.76875-58.44375 56.25q-11.41875 10.546875-20.221875 25.48125zM147.246875 659.090625q0 25.48125 18.45 44.38125t44.83125 18.9h19.35q26.38125 0 44.83125-18.9t18.45-44.38125v-292.66875q0-26.38125-18.45-44.83125t-44.83125-18.45h-19.35q-26.38125 0-44.83125 18.45t-18.45 44.83125V659.090625z"  horiz-adv-x="1024" />

    
    <glyph glyph-name="like1" unicode="&#58951;" d="M347.6375 464.859375q-4.3875-7.903125-6.58125-19.771875t-2.19375-20.64375l0.871875-7.903125v-297.95625q-2.64375-43.059375 10.546875-63.28125 3.515625-5.2875 7.903125-8.803125t7.03125-4.3875l3.515625-0.871875q59.765625-14.934375 71.184375-19.35 23.7375-11.41875 60.6375-19.35t64.153125-9.675q41.315625-2.64375 88.7625 0 2.64375 0 7.48125 0.45t18.45 3.515625 26.803125 7.903125 29.446875 14.0625 28.996875 21.09375 22.865625 30.31875 12.740625 41.315625q1.771875 0.871875 3.515625 2.19375t7.48125 5.709375 10.096875 10.096875 9.675 15.834375 7.903125 21.09375 2.64375 26.803125-3.515625 33.4125l5.2875 5.2875 10.996875 14.934375 11.41875 23.2875 3.065625 31.190625-9.675 37.8q0.871875 3.515625 3.065625 8.353125t6.58125 20.64375 5.2875 30.76875-3.065625 34.284375-15.384375 36.028125q-1.771875 1.771875-4.3875 5.2875t-12.31875 12.740625-20.64375 15.834375-29.896875 12.31875-39.121875 5.709375h-70.3125q-20.221875-2.64375-23.7375 3.515625-1.771875 1.771875-2.64375 3.515625t-0.45 4.3875 0.871875 4.3875 1.771875 7.48125 3.065625 10.096875q6.159375 28.125 8.803125 55.8t-0.45 61.0875-21.09375 59.765625-50.540625 38.671875q-1.771875 1.771875-5.709375 3.065625t-14.5125 3.515625-20.64375 1.771875-22.415625-6.159375-21.54375-17.128125-16.25625-33.834375-8.803125-54.05625q0.871875-2.64375 0.45-8.803125t-6.58125-24.609375-16.70625-38.221875-35.15625-48.76875-58.021875-56.25q-12.31875-10.546875-21.09375-25.48125z m-203.90625-360.365625q0-25.48125 18.45-44.38125t44.83125-18.9h19.35q25.48125 0 44.38125 18.9t18.9 44.38125V397.1625q0 26.38125-18.9 44.83125t-44.38125 18.45h-19.35q-26.38125 0-44.83125-18.45t-18.45-44.83125v-292.66875z"  horiz-adv-x="1024" />

    
    <glyph glyph-name="like2" unicode="&#58952;" d="M877.625 436.734375q-6.159375 26.38125-22.865625 47.025t-36.028125 32.090625q-28.125 15.834375-62.409375 15.834375h-79.9875q12.31875 36.928125 15.834375 83.503125v2.64375q0 49.21875-14.0625 84.375-13.190625 33.4125-39.54375 53.60625-24.609375 17.578125-56.25 20.221875-25.48125 1.771875-51.8625-6.159375-36.928125-12.31875-53.60625-49.21875-8.803125-19.35-14.0625-57.121875l-0.871875-0.871875v-4.3875q-1.771875-10.546875-3.515625-18.45-15.834375-72.084375-65.053125-123.91875-26.38125-28.125-54.50625-43.959375-19.35-12.31875-43.059375-12.31875H203.496875q-25.48125 0-43.059375-17.578125t-17.578125-43.059375v-296.184375q0-24.609375 17.578125-42.6375t42.1875-18.028125h130.078125q25.48125 0 75.6-15.834375h0.871875q33.4125-10.546875 54.05625-16.25625t65.475-11.86875 95.79375-6.159375h1.771875q101.953125 0 148.528125 52.734375 22.865625 24.609375 28.996875 56.25 1.771875 8.803125 1.771875 11.41875 31.640625 23.7375 39.54375 58.021875 7.03125 28.125-2.64375 57.121875 26.38125 25.48125 30.76875 57.121875 4.3875 28.125-8.803125 57.121875 10.546875 21.09375 14.934375 42.1875 4.3875 26.38125-1.771875 52.734375z m-71.184375-114.271875q10.546875-14.0625 7.903125-29.896875-2.64375-16.70625-25.48125-31.640625-10.546875-7.03125-12.740625-18.9t4.8375-22.415625q9.675-21.09375 6.159375-36.028125-3.515625-16.70625-25.48125-29.896875-16.70625-9.675-14.934375-28.996875 0.871875-1.771875 0.45-6.58125t-4.3875-15.384375-12.740625-19.35q-28.996875-31.640625-104.596875-31.640625h-0.871875q-46.575 0-87.01875 5.2875t-60.215625 10.546875-49.66875 14.934375q-50.990625 16.70625-79.9875 19.35V409.48125q11.41875 4.3875 21.965625 10.546875 35.15625 21.09375 66.796875 55.378125 60.6375 63.28125 79.9875 151.171875l5.2875 26.38125q4.3875 31.640625 9.675 43.509375t17.578125 15.384375q32.5125 10.546875 54.50625-5.2875 28.996875-21.09375 29.896875-87.890625-3.515625-45.703125-17.578125-78.215625-10.546875-24.609375 4.3875-46.575t40.44375-21.965625h95.79375q18.45 0 32.5125-8.803125 24.609375-13.190625 30.76875-41.315625 7.03125-28.996875-14.934375-64.153125-11.41875-18.45 1.771875-35.15625zM202.625 398.934375q0 0.871875 0.871875 0.871875h84.375v-297.95625h-84.375q-0.871875 0-0.871875 0.871875V398.90625z"  horiz-adv-x="1024" />

    
    <glyph glyph-name="calendar" unicode="&#58918;" d="M828.40625001 32.4375H195.59374999a84.375 84.375 0 0 0-84.37499998 84.375V594.9375a84.375 84.375 0 0 0 84.375 84.375h77.34374999a28.125 28.125 0 0 0 0-56.25H195.59374999a28.125 28.125 0 0 1-28.12499998-28.125v-478.125a28.125 28.125 0 0 1 28.125-28.125h632.8125a28.125 28.125 0 0 1 28.125 28.125V594.9375a28.125 28.125 0 0 1-28.125 28.125H751.0625a28.125 28.125 0 0 0 0 56.25h77.34375001a84.375 84.375 0 0 0 84.37499998-84.375v-478.125a84.375 84.375 0 0 0-84.375-84.375zM554.1875 623.0625H469.8125a28.125 28.125 0 0 0 0 56.25h84.375a28.125 28.125 0 0 0 0-56.25zM371.375 594.9375a28.125 28.125 0 0 0-28.125 28.125V707.4375a28.125 28.125 0 0 0 56.25 0v-84.375a28.125 28.125 0 0 0-28.125-28.125zM652.625 594.9375a28.125 28.125 0 0 0-28.125 28.125V707.4375a28.125 28.125 0 0 0 56.25 0v-84.375a28.125 28.125 0 0 0-28.125-28.125zM765.125 482.4375H258.875a28.125 28.125 0 0 0 0 56.25h506.25a28.125 28.125 0 0 0 0-56.25zM357.3125 313.6875H272.9375a28.125 28.125 0 0 0 0 56.25h84.375a28.125 28.125 0 0 0 0-56.25zM554.1875 313.6875H469.8125a28.125 28.125 0 0 0 0 56.25h84.375a28.125 28.125 0 0 0 0-56.25zM751.0625 313.6875H666.6875a28.125 28.125 0 0 0 0 56.25h84.375a28.125 28.125 0 0 0 0-56.25zM357.3125 173.0625H272.9375a28.125 28.125 0 0 0 0 56.25h84.375a28.125 28.125 0 0 0 0-56.25zM554.1875 173.0625H469.8125a28.125 28.125 0 0 0 0 56.25h84.375a28.125 28.125 0 0 0 0-56.25zM751.0625 173.0625H666.6875a28.125 28.125 0 0 0 0 56.25h84.375a28.125 28.125 0 0 0 0-56.25z"  horiz-adv-x="1024" />

    
    <glyph glyph-name="category" unicode="&#58919;" d="M384-32H192a96 96 0 0 0-96 96V256a96 96 0 0 0 96 96h192a96 96 0 0 0 96-96v-192a96 96 0 0 0-96-96zM192 288a32 32 0 0 1-32-32v-192a32 32 0 0 1 32-32h192a32 32 0 0 1 32 32V256a32 32 0 0 1-32 32H192zM784-32H640a96 96 0 0 0-96 96V256a96 96 0 0 0 96 96h192a96 96 0 0 0 96-96v-144a32 32 0 0 0-64 0V256a32 32 0 0 1-32 32H640a32 32 0 0 1-32-32v-192a32 32 0 0 1 32-32h144a32 32 0 0 0 0-64zM384 416H192a96 96 0 0 0-96 96V704a96 96 0 0 0 96 96h192a96 96 0 0 0 96-96v-192a96 96 0 0 0-96-96zM192 736a32 32 0 0 1-32-32v-192a32 32 0 0 1 32-32h192a32 32 0 0 1 32 32V704a32 32 0 0 1-32 32H192zM832 416H640a96 96 0 0 0-96 96V704a96 96 0 0 0 96 96h192a96 96 0 0 0 96-96v-192a96 96 0 0 0-96-96zM640 736a32 32 0 0 1-32-32v-192a32 32 0 0 1 32-32h192a32 32 0 0 1 32 32V704a32 32 0 0 1-32 32H640z"  horiz-adv-x="1024" />

    
    <glyph glyph-name="delete" unicode="&#58920;" d="M694.88-44H329.12c-58 0-105.12 43.04-105.12 96v448a32 32 0 0 0 64 0v-448c0-17.36 18.88-32 41.12-32h365.76c22.32 0 41.12 14.64 41.12 32v448a32 32 0 0 0 64 0v-448c0-52.96-47.2-96-105.12-96zM864 592H160a32 32 0 0 0 0 64h704a32 32 0 0 0 0-64zM432 84a32 32 0 0 0-32 32v320a32 32 0 0 0 64 0v-320a32 32 0 0 0-32-32zM592 84a32 32 0 0 0-32 32v320a32 32 0 0 0 64 0v-320a32 32 0 0 0-32-32zM384 620a32 32 0 0 0-32 32 160 160 0 0 0 276.16 110 32 32 0 1 0-46.48-44A95.12 95.12 0 0 1 512 748a96 96 0 0 1-96-96 32 32 0 0 0-32-32z"  horiz-adv-x="1024" />

    
    <glyph glyph-name="favourite" unicode="&#58925;" d="M267.34933333-42.66666667000004a52.48 52.48 0 0 0-51.2 61.26933334l41.984 243.62666666L79.70133333 435.2a52.30933333 52.30933333 0 0 0 29.01333334 89.344L354.98666667 559.7866666699999l110.08 221.86666666a52.48 52.48 0 0 0 93.86666666 0l28.84266667-58.112a34.13333333 34.13333333 0 0 0-61.184-30.37866666L512 722.688 412.416 521.9839999999999a52.48 52.48 0 0 0-39.424-28.58666667l-222.37866667-32.17066666 160.68266667-155.81866667a52.224 52.224 0 0 0 15.104-46.42133333l-37.97333333-220.24533334 199.168 104.10666667a52.56533333 52.56533333 0 0 0 48.64 0l199.168-104.192-37.888 220.33066667a52.224 52.224 0 0 0 15.18933333 46.42133333l160.768 155.81866667-222.37866667 32.17066666a52.39466667 52.39466667 0 0 0-39.424 28.58666667l-17.06666666 34.56a34.13333333 34.13333333 0 1 0 61.184 30.37866667l13.22666666-27.136 246.18666667-35.584A52.30933333 52.30933333 0 0 0 944.29866667 435.2L766.208 262.22933333000003l41.984-243.62666666a52.39466667 52.39466667 0 0 0-76.032-55.21066667L512 78.50666666999996l-220.24533333-115.2a52.48 52.48 0 0 0-24.40533334-5.97333334z"  horiz-adv-x="1024" />

    
    <glyph glyph-name="like" unicode="&#58930;" d="M512-2.0249999999999773a90 90 0 0 0-63.6 26.025L167 305.54999999999995C62.825 409.875 58.85 580.35 158.375 685.5a270 270 0 0 0 387.15 5.4L579.5 656.85a30 30 0 1 0-42.45-42.45l-34.05 34.05a208.275 208.275 0 0 1-148.5 61.5h-3a208.5 208.5 0 0 1-150-65.775c-77.4-81.75-73.95-214.65 7.5-296.25l281.25-281.25a30 30 0 0 1 42.45 0l281.4 281.4a218.325 218.325 0 0 1 63.075 154.5 205.725 205.725 0 0 1-61.05 147.225 209.4 209.4 0 0 1-193.05 55.125 30 30 0 1 0-13.05 58.575 269.175 269.175 0 0 0 248.175-70.95 265.275 265.275 0 0 0 78.975-189.75A278.7 278.7 0 0 0 857 305.625L575.675 24a90 90 0 0 0-63.675-26.025zM632 589.95a30 30 0 1 1 30-30 30 30 0 0 1-30 30z"  horiz-adv-x="1024" />

    
    <glyph glyph-name="mark" unicode="&#58933;" d="M740.43733333 503.46666667a34.13333333 34.13333333 0 1 1 24.14933334-9.984A34.13333333 34.13333333 0 0 1 740.43733333 503.46666667zM619.69066667-43.26400000000001a101.71733333 101.71733333 0 0 0-72.448 29.952L114.688 419.24266667a101.71733333 101.71733333 0 0 0-29.952 72.36266666V708.864a102.4 102.4 0 0 0 102.4 102.4h217.17333333a101.80266667 101.80266667 0 0 0 72.36266667-29.952l203.34933333-203.264A34.13333333 34.13333333 0 1 0 631.46666667 529.74933333L428.45866667 733.01333333a34.13333333 34.13333333 0 0 1-24.14933334 9.984H187.136a34.13333333 34.13333333 0 0 1-34.13333333-34.13333333v-217.17333333a34.13333333 34.13333333 0 0 1 9.984-24.14933334l432.55466666-432.55466666a34.98666667 34.98666667 0 0 1 48.29866667 0l217.17333333 217.17333333a34.13333333 34.13333333 0 0 1 0 48.29866667l-60.33066666 60.416a34.13333333 34.13333333 0 0 0 48.29866666 48.21333333l60.24533334-60.416a102.4 102.4 0 0 0 0-145.06666667L692.05333333-13.312000000000012a101.71733333 101.71733333 0 0 0-72.36266666-29.952zM369.32266667 427.43466667a102.4 102.4 0 1 0 72.448 29.952 102.4 102.4 0 0 0-72.448-29.952z m0 136.53333333a34.13333333 34.13333333 0 1 1 24.14933333-9.984 34.13333333 34.13333333 0 0 1-24.14933333 9.89866667z"  horiz-adv-x="1024" />

    
    <glyph glyph-name="message" unicode="&#58934;" d="M641.9-16.649999999999977a27.975 27.975 0 0 0-21.225 6.6L449.45 159H422a30 30 0 0 0 0 60h39.9a28.275 28.275 0 0 0 21.225-6.6l158.775-157.5 158.775 157.5a28.65 28.65 0 0 0 21.225 7.5H849.5c16.575 0 30 17.775 30 34.35v442.5c0 16.575-13.425 25.65-30 25.65H174.5c-16.575 0-30-9.15-30-25.65v-442.5c0-17.475 13.425-35.25 30-35.25h37.5a30 30 0 0 0 0-60h-37.5c-49.65 0-90 45-90 94.35v442.5C84.5 745.425 124.85 781.5 174.5 781.5h675c49.65 0 90-36.075 90-85.65v-442.5C939.5 204 899.15 159 849.5 159h-15l-171.375-169.05a27.975 27.975 0 0 0-21.225-6.6zM317 193.35000000000002m-30 0a30 30 0 1 1 60 0 30 30 0 1 1-60 0ZM377 474.6m-30 0a30 30 0 1 1 60 0 30 30 0 1 1-60 0ZM512 474.6m-30 0a30 30 0 1 1 60 0 30 30 0 1 1-60 0ZM647 474.6m-30 0a30 30 0 1 1 60 0 30 30 0 1 1-60 0Z"  horiz-adv-x="1024" />

    
    <glyph glyph-name="picture" unicode="&#58938;" d="M648.53333333 110.93333332999998m-34.13333333 0a34.13333333 34.13333333 0 1 1 68.26666667 0 34.13333333 34.13333333 0 1 1-68.26666667 0ZM836.26666667-42.66666667000004H187.73333333a102.4 102.4 0 0 0-102.4 102.4V708.26666667a102.4 102.4 0 0 0 102.4 102.4h648.53333334a102.4 102.4 0 0 0 102.4-102.4v-648.53333334a102.4 102.4 0 0 0-102.4-102.4zM187.73333333 742.4a34.13333333 34.13333333 0 0 1-34.13333333-34.13333333v-648.53333334a34.13333333 34.13333333 0 0 1 34.13333333-34.13333333h648.53333334a34.13333333 34.13333333 0 0 1 34.13333333 34.13333333V708.26666667a34.13333333 34.13333333 0 0 1-34.13333333 34.13333333H187.73333333zM520.53333333 204.79999999999995a34.13333333 34.13333333 0 0 0-24.14933333 58.28266667l147.968 147.968a102.4 102.4 0 0 0 145.06666667 0l130.90133333-130.90133334a34.13333333 34.13333333 0 0 0-48.29866667-48.29866666L740.94933333 362.75199999999995a34.13333333 34.13333333 0 0 1-48.29866666 0L544.68266667 214.784A34.13333333 34.13333333 0 0 0 520.53333333 204.79999999999995zM153.6-8.533333330000005a34.13333333 34.13333333 0 0 0-24.14933333 58.28266666l241.83466666 241.83466667a102.4 102.4 0 0 0 145.06666667 0L594.432 213.33333332999996A34.13333333 34.13333333 0 1 0 546.13333333 165.03466666999998l-78.25066666 78.25066666a34.13333333 34.13333333 0 0 1-48.29866667 0l-241.83466667-241.83466666A34.13333333 34.13333333 0 0 0 153.6-8.533333330000005zM358.4 435.2a102.4 102.4 0 1 0 102.4 102.4 102.4 102.4 0 0 0-102.4-102.4z m0 136.53333333a34.13333333 34.13333333 0 1 1 34.13333333-34.13333333 34.13333333 34.13333333 0 0 1-34.13333333 34.13333333z"  horiz-adv-x="1024" />

    
    <glyph glyph-name="yes_b" unicode="&#59024;" d="M512-36C281-36 92 153 92 384S281 804 512 804s420-189 420-420-189-420-420-420z m0 780C314 744 152 582 152 384s162-360 360-360 360 162 360 360S710 744 512 744zM497 249c-7.5 0-15 3-21 9l-150 150c-12 12-12 30 0 42 12 12 30 12 42 0l129-129 204 204c12 12 30 12 42 0 12-12 12-30 0-42l-225-225c-6-6-13.5-9-21-9z"  horiz-adv-x="1024" />

    
    <glyph glyph-name="close_b" unicode="&#59025;" d="M512-36C281-36 92 153 92 384S281 804 512 804s420-189 420-420-189-420-420-420z m0 780C314 744 152 582 152 384s162-360 360-360 360 162 360 360S710 744 512 744zM662 204c-7.5 0-15 3-21 9l-300 300c-12 12-12 30 0 42 12 12 30 12 42 0l300-300c12-12 12-30 0-42-6-6-13.5-9-21-9zM362 204c-7.5 0-15 3-21 9-12 12-12 30 0 42l300 300c12 12 30 12 42 0 12-12 12-30 0-42l-300-300c-6-6-13.5-9-21-9z"  horiz-adv-x="1024" />

    
    <glyph glyph-name="caution_b" unicode="&#59026;" d="M512-36C281-36 92 153 92 384S281 804 512 804s420-189 420-420-189-420-420-420z m0 780C314 744 152 582 152 384s162-360 360-360 360 162 360 360S710 744 512 744zM512 324c-16.5 0-30 13.5-30 30V564c0 16.5 13.5 30 30 30s30-13.5 30-30v-210c0-16.5-13.5-30-30-30zM512 174c-16.5 0-30 13.5-30 30v30c0 16.5 13.5 30 30 30s30-13.5 30-30v-30c0-16.5-13.5-30-30-30z"  horiz-adv-x="1024" />

    
    <glyph glyph-name="question_b" unicode="&#59027;" d="M512-36C281-36 92 153 92 384S281 804 512 804s420-189 420-420-189-420-420-420z m0 780C314 744 152 582 152 384s162-360 360-360 360 162 360 360S710 744 512 744zM512 294c-16.5 0-30 13.5-30 30 0 40.5 39 75 67.5 99 6 4.5 12 9 15 13.5 13.5 13.5 22.5 33 22.5 52.5 0 42-33 75-75 75s-75-33-75-75c0-16.5-13.5-30-30-30s-30 13.5-30 30c0 75 60 135 135 135s135-60 135-135c0-36-13.5-70.5-39-96-4.5-4.5-12-10.5-19.5-16.5-13.5-12-46.5-39-46.5-52.5 0-16.5-13.5-30-30-30zM512 144c-16.5 0-30 13.5-30 30v30c0 16.5 13.5 30 30 30s30-13.5 30-30v-30c0-16.5-13.5-30-30-30z"  horiz-adv-x="1024" />

    
    <glyph glyph-name="down_b" unicode="&#59028;" d="M512 249c-7.5 0-15 3-21 9l-180 180c-12 12-12 30 0 42 12 12 30 12 42 0L512 321l159 159c12 12 30 12 42 0 12-12 12-30 0-42l-180-180c-6-6-13.5-9-21-9zM512-36C281-36 92 153 92 384S281 804 512 804s420-189 420-420-189-420-420-420z m0 780C314 744 152 582 152 384s162-360 360-360 360 162 360 360S710 744 512 744z"  horiz-adv-x="1024" />

    
    <glyph glyph-name="up_b" unicode="&#59029;" d="M692 279c-7.5 0-15 3-21 9L512 447 353 288c-12-12-30-12-42 0-12 12-12 30 0 42l180 180c12 12 30 12 42 0l180-180c12-12 12-30 0-42-6-6-13.5-9-21-9zM512-36C281-36 92 153 92 384S281 804 512 804s420-189 420-420-189-420-420-420z m0 780C314 744 152 582 152 384s162-360 360-360 360 162 360 360S710 744 512 744z"  horiz-adv-x="1024" />

    
    <glyph glyph-name="left_b" unicode="&#59030;" d="M587 174c-7.5 0-15 3-21 9l-180 180c-12 12-12 30 0 42l180 180c12 12 30 12 42 0 12-12 12-30 0-42L449 384l159-159c12-12 12-30 0-42-6-6-13.5-9-21-9zM512-36C281-36 92 153 92 384S281 804 512 804s420-189 420-420-189-420-420-420z m0 780C314 744 152 582 152 384s162-360 360-360 360 162 360 360S710 744 512 744z"  horiz-adv-x="1024" />

    
    <glyph glyph-name="right_b" unicode="&#59032;" d="M437 174c-7.5 0-15 3-21 9-12 12-12 30 0 42L575 384 416 543c-12 12-12 30 0 42 12 12 30 12 42 0l180-180c12-12 12-30 0-42l-180-180c-6-6-13.5-9-21-9zM512-36C281-36 92 153 92 384S281 804 512 804s420-189 420-420-189-420-420-420z m0 780C314 744 152 582 152 384s162-360 360-360 360 162 360 360S710 744 512 744z"  horiz-adv-x="1024" />

    
    <glyph glyph-name="time" unicode="&#59034;" d="M512-36C281-36 92 153 92 384S281 804 512 804s420-189 420-420-189-420-420-420z m0 780C314 744 152 582 152 384s162-360 360-360 360 162 360 360S710 744 512 744zM722 354H512c-16.5 0-30 13.5-30 30V654c0 16.5 13.5 30 30 30s30-13.5 30-30v-240h180c16.5 0 30-13.5 30-30s-13.5-30-30-30z"  horiz-adv-x="1024" />

    
    <glyph glyph-name="lock" unicode="&#59035;" d="M765.125-31.08333332999996H258.875c-46.40625 0-84.375 37.96875-84.375 84.375V390.79166667c0 46.40625 37.96875 84.375 84.375 84.375h506.25c46.40625 0 84.375-37.96875 84.375-84.375v-337.5c0-46.40625-37.96875-84.375-84.375-84.375zM258.875 418.91666667c-15.46875 0-28.125-12.65625-28.125-28.125v-337.5c0-15.46875 12.65625-28.125 28.125-28.125h506.25c15.46875 0 28.125 12.65625 28.125 28.125V390.79166667c0 15.46875-12.65625 28.125-28.125 28.125H258.875zM722.9375 447.04166667c-15.46875 0-28.125 12.65625-28.125 28.125v98.4375c0 101.25-81.5625 182.8125-182.8125 182.8125S329.1875 674.85416667 329.1875 573.60416667v-98.4375c0-15.46875-12.65625-28.125-28.125-28.125s-28.125 12.65625-28.125 28.125v98.4375c0 132.1875 106.875 239.0625 239.0625 239.0625s239.0625-106.875 239.0625-239.0625v-98.4375c0-15.46875-12.65625-28.125-28.125-28.125z"  horiz-adv-x="1024" />

    
    <glyph glyph-name="eye" unicode="&#59038;" d="M512 67.59375C240.41796875 67.59375 128.35742187 286.44140625 99.35351562 353.67773437000005c-7.91015625 19.77539063-7.91015625 40.86914063 1e-8 60.64453126C128.35742187 481.55859375 240.41796875 700.40625 512 700.40625c270.26367188 0 383.64257813-218.84765625 412.64648438-286.08398438 7.91015625-19.77539063 7.91015625-40.86914063-1e-8-60.64453124C895.64257813 286.44140625 782.26367188 67.59375 512 67.59375zM148.1328125 394.546875c-2.63671875-6.59179688-2.63671875-13.18359375 0-19.77539063C173.18164062 314.12695312000005 273.37695312 120.328125 512 120.328125s338.81835938 193.79882813 363.8671875 253.125c2.63671875 6.59179688 2.63671875 13.18359375 0 19.77539063C850.81835938 453.87304688 750.62304688 647.671875 512 647.671875S173.18164062 453.87304688 148.1328125 394.546875zM512 252.1640625c-72.50976563 0-131.8359375 59.32617188-131.8359375 131.8359375s59.32617188 131.8359375 131.8359375 131.8359375 131.8359375-59.32617188 131.8359375-131.8359375-59.32617188-131.8359375-131.8359375-131.8359375z m0 210.9375c-43.50585938 0-79.1015625-35.59570313-79.1015625-79.1015625s35.59570313-79.1015625 79.1015625-79.1015625 79.1015625 35.59570313 79.1015625 79.1015625-35.59570313 79.1015625-79.1015625 79.1015625z"  horiz-adv-x="1024" />

    
    <glyph glyph-name="hide" unicode="&#59039;" d="M167.90820312 270.62109375c-2.63671875 0-6.59179688 0-9.22851562 1.31835938-13.18359375 5.2734375-21.09375 19.77539063-15.8203125 34.27734375l54.05273438 148.97460937c5.2734375 13.18359375 19.77539063 21.09375 34.27734375 15.8203125 13.18359375-5.2734375 21.09375-19.77539063 15.8203125-34.27734375L192.95703125 287.75976562000005c-3.95507813-10.546875-14.50195313-17.13867188-25.04882813-17.13867187zM388.07421875 182.29101562000005h-3.95507813c-14.50195313 2.63671875-23.73046875 15.8203125-21.09374999 30.32226563l27.68554687 155.56640625c2.63671875 14.50195313 15.8203125 23.73046875 30.32226563 21.09375 14.50195313-2.63671875 23.73046875-15.8203125 21.09374999-30.32226563l-27.68554687-155.56640624c-2.63671875-11.86523438-14.50195313-21.09375-26.3671875-21.09375001zM635.92578125 182.29101562000005c-13.18359375 0-23.73046875 9.22851563-26.3671875 22.41210938l-27.68554688 155.56640625c-2.63671875 14.50195313 6.59179688 27.68554688 21.09375001 30.32226563 14.50195313 2.63671875 27.68554688-6.59179688 30.32226562-21.09375001L662.29296875 212.61328125c2.63671875-14.50195313-6.59179688-27.68554688-21.09375-30.32226563h-5.2734375zM856.09179688 270.62109375c-10.546875 0-21.09375 6.59179688-25.04882813 17.13867188L776.99023438 436.734375c-5.2734375 13.18359375 2.63671875 29.00390625 15.82031249 34.27734375 13.18359375 5.2734375 29.00390625-2.63671875 34.27734375-15.8203125L881.140625 306.21679687000005c5.2734375-13.18359375-2.63671875-29.00390625-15.8203125-34.27734374-2.63671875 0-6.59179688-1.31835938-9.22851563-1.31835938zM512 331.265625C195.59375 331.265625 96.71679687 548.79492188 92.76171875 558.0234375c-5.2734375 13.18359375 0 29.00390625 13.18359375 34.27734375 13.18359375 5.2734375 29.00390625 0 34.27734375-13.18359375C144.17773437 571.20703125 231.18945312 384 512 384c280.81054688 0 367.82226563 187.20703125 371.77734375 195.1171875 5.2734375 13.18359375 21.09375 19.77539063 34.27734375 13.18359375 13.18359375-5.2734375 19.77539063-21.09375 13.18359375-34.27734375C927.28320313 548.79492188 828.40625 331.265625 512 331.265625z"  horiz-adv-x="1024" />

    
    <glyph glyph-name="mail" unicode="&#59041;" d="M842 24H182c-49.5 0-90 40.5-90 90V654c0 49.5 40.5 90 90 90h660c49.5 0 90-40.5 90-90v-540c0-49.5-40.5-90-90-90zM182 684c-16.5 0-30-13.5-30-30v-540c0-16.5 13.5-30 30-30h660c16.5 0 30 13.5 30 30V654c0 16.5-13.5 30-30 30H182zM512 285c-21 0-43.5 7.5-60 22.5L222.5 511.5c-12 10.5-13.5 30-3 42 10.5 12 30 13.5 42 3l229.5-204c12-10.5 28.5-10.5 40.5 0l229.5 204c12 10.5 31.5 10.5 42-3s10.5-31.5-3-42L572 307.5c-18-15-39-22.5-60-22.5z"  horiz-adv-x="1024" />

    
    </font>
</defs>
</svg>
